<?xml version="1.0" encoding="UTF-8" standalone="no"?><svg width="142" height="23" viewBox="0 0 142 23" xmlns="http://www.w3.org/2000/svg"><title>Page 1</title><g id="Page-1" fill="none" fill-rule="evenodd"><g id="01_home" transform="translate(-133 -5689)" fill="#FFF"><g id="Footer" transform="translate(-43 5651)"><g id="Page-1" transform="translate(176 38)"><path id="Fill-1" d="M25.66 1.336v1.116h9.122v20.47h1.304V2.452h9.122V1.336z"/><path id="Fill-2" d="M49.897 22.922h1.39l9.47-18.774 8.907 17.657h-14.49l-.554 1.117h16.998L60.758 1.284z"/><path id="Fill-3" d="M76.294 1.336v1.116h9.123v20.47h1.304V2.452h9.123V1.336z"/><path id="Fill-4" d="M107.597 22.922h1.304V1.336h-1.304z"/><path d="M138.562 1.336l-11.99 10.837 13.38 10.749h1.868l-13.379-10.749 11.99-10.837h-1.869zm-15.314 21.586h1.303V1.336h-1.303v21.586z" id="Fill-5"/><path d="M14.858 13.21c-1.376-.974-3.554-1.727-6.477-2.238-2.727-.472-4.605-1.086-5.583-1.823-.96-.724-1.446-1.67-1.446-2.815 0-1.316.593-2.326 1.81-3.087C4.382 2.486 6.094 2.1 8.246 2.1c2.377 0 4.746.358 7.053 1.057l.866-.976-.04-.014A26.037 26.037 0 0 0 8.244.955c-2.46 0-4.47.49-5.965 1.457C.767 3.389 0 4.71 0 6.334c0 1.569.645 2.819 1.918 3.716 1.25.882 3.334 1.576 6.194 2.06 3.005.498 5.03 1.183 6.022 2.034.981.845 1.479 1.855 1.479 3.004 0 1.43-.65 2.571-1.93 3.387-1.298.828-3.128 1.247-5.437 1.247-2.499 0-5.003-.497-7.455-1.466l-.79.893v.052l.111.047a20.977 20.977 0 0 0 8.134 1.62c2.651 0 4.786-.518 6.346-1.539 1.575-1.03 2.374-2.458 2.374-4.241 0-1.621-.71-2.945-2.108-3.937" id="Fill-6"/></g></g></g></g></svg>