<svg id="svg" version="1.1" width="400" height="400" viewBox="0 0 400 400" xmlns="http://www.w3.org/2000/svg" xmlns:xlink="http://www.w3.org/1999/xlink" ><g id="svgg"><path id="path0" d="M0.000 200.000 L 0.000 400.000 200.000 400.000 L 400.000 400.000 400.000 200.000 L 400.000 0.000 200.000 0.000 L 0.000 0.000 0.000 200.000 M175.646 57.148 C 176.171 57.559,177.146 58.015,177.814 58.161 C 178.482 58.307,179.810 59.140,180.765 60.013 C 181.720 60.886,182.663 61.600,182.860 61.600 C 183.058 61.600,183.391 62.050,183.600 62.600 C 183.809 63.150,184.174 63.600,184.411 63.600 C 184.647 63.600,185.100 64.220,185.417 64.978 C 185.733 65.736,186.235 66.501,186.532 66.678 C 187.428 67.213,189.200 71.590,189.200 73.268 C 189.200 74.133,189.491 75.402,189.846 76.089 C 190.730 77.798,190.852 86.142,190.015 87.600 C 189.699 88.150,189.319 89.731,189.170 91.113 C 189.022 92.495,188.617 93.940,188.269 94.323 C 187.922 94.707,187.517 95.776,187.370 96.699 C 187.188 97.838,186.860 98.454,186.351 98.616 C 185.886 98.763,185.600 99.227,185.600 99.831 C 185.600 100.368,185.240 101.116,184.800 101.493 C 184.360 101.870,184.000 102.421,184.000 102.719 C 184.000 103.513,178.353 109.200,177.565 109.200 C 177.195 109.200,176.810 109.515,176.709 109.900 C 176.608 110.285,175.829 110.851,174.977 111.157 C 174.126 111.463,173.185 111.958,172.886 112.257 C 172.587 112.556,171.539 112.800,170.557 112.800 C 169.575 112.800,168.373 113.056,167.886 113.369 C 166.429 114.305,162.821 114.363,161.923 113.466 C 161.629 113.172,160.334 112.823,159.045 112.690 C 157.480 112.528,156.411 112.174,155.825 111.624 C 155.343 111.171,154.749 110.800,154.506 110.800 C 153.753 110.800,150.400 107.181,150.400 106.368 C 150.400 105.946,150.126 105.600,149.790 105.600 C 149.455 105.600,149.018 105.175,148.821 104.655 C 148.623 104.135,148.200 103.609,147.881 103.486 C 147.562 103.364,147.181 102.624,147.034 101.843 C 146.888 101.061,146.481 100.261,146.130 100.065 C 145.694 99.821,145.402 98.835,145.206 96.954 C 145.049 95.439,144.623 93.531,144.260 92.713 C 143.088 90.073,143.515 81.600,144.820 81.600 C 144.981 81.600,145.180 80.266,145.262 78.635 C 145.364 76.613,145.622 75.437,146.072 74.935 C 146.435 74.531,146.858 73.520,147.013 72.689 C 147.172 71.833,147.620 71.004,148.047 70.775 C 148.461 70.553,148.800 70.018,148.800 69.586 C 148.800 69.154,149.115 68.483,149.500 68.095 C 149.885 67.706,150.421 66.896,150.691 66.295 C 150.962 65.693,151.457 65.200,151.791 65.200 C 152.126 65.200,152.400 64.913,152.400 64.563 C 152.400 64.212,152.745 63.835,153.166 63.725 C 153.587 63.615,154.041 63.091,154.174 62.562 C 154.307 62.033,154.663 61.600,154.965 61.600 C 155.267 61.600,155.612 61.345,155.732 61.034 C 155.851 60.723,156.455 60.192,157.074 59.854 C 158.451 59.103,160.392 58.143,161.200 57.814 C 161.530 57.679,162.250 57.308,162.800 56.990 C 164.443 56.040,174.389 56.162,175.646 57.148 M247.765 68.238 C 249.764 68.589,252.318 69.309,253.440 69.838 C 254.562 70.367,255.675 70.800,255.913 70.800 C 256.151 70.800,256.460 71.160,256.600 71.600 C 256.740 72.040,257.021 72.400,257.224 72.400 C 258.086 72.400,263.126 77.965,263.609 79.450 C 263.886 80.302,264.347 81.138,264.633 81.307 C 264.919 81.475,265.280 82.465,265.435 83.507 C 265.590 84.548,266.006 85.842,266.359 86.382 C 267.292 87.812,267.277 96.814,266.338 98.800 C 265.974 99.570,265.581 100.869,265.465 101.688 C 265.349 102.506,264.882 103.575,264.427 104.063 C 263.972 104.551,263.600 105.273,263.600 105.667 C 263.600 107.448,256.307 113.747,253.520 114.374 C 252.620 114.576,251.736 114.979,251.557 115.271 C 251.011 116.154,240.896 116.009,239.611 115.100 C 239.067 114.715,238.302 114.400,237.911 114.400 C 237.520 114.400,236.845 114.045,236.410 113.610 C 235.976 113.176,235.159 112.705,234.595 112.563 C 233.296 112.237,227.410 106.532,226.999 105.200 C 226.829 104.650,226.355 103.771,225.945 103.246 C 225.535 102.721,225.200 101.949,225.200 101.530 C 225.200 101.111,224.857 100.280,224.438 99.684 C 222.945 97.559,223.015 85.458,224.538 82.404 C 224.902 81.674,225.200 80.759,225.200 80.369 C 225.200 79.980,225.650 79.127,226.200 78.473 C 226.750 77.819,227.201 77.130,227.202 76.942 C 227.205 76.624,230.383 73.248,232.200 71.633 C 232.640 71.242,233.517 70.796,234.148 70.641 C 234.780 70.487,235.551 70.106,235.862 69.795 C 236.467 69.190,238.886 68.410,240.200 68.396 C 240.640 68.392,241.270 68.213,241.600 68.000 C 242.436 67.459,243.583 67.504,247.765 68.238 M214.149 108.953 C 215.001 109.309,216.480 109.600,217.436 109.600 C 218.393 109.600,220.554 110.050,222.239 110.600 C 223.924 111.150,225.615 111.600,225.997 111.600 C 226.379 111.600,227.150 111.960,227.709 112.400 C 228.269 112.840,229.169 113.200,229.709 113.200 C 230.250 113.200,231.121 113.535,231.646 113.945 C 232.171 114.355,232.981 114.809,233.447 114.955 C 233.913 115.101,234.616 115.576,235.009 116.010 C 235.402 116.445,236.056 116.800,236.462 116.800 C 236.868 116.800,237.560 117.160,238.000 117.600 C 238.440 118.040,239.056 118.400,239.369 118.400 C 239.682 118.400,240.473 118.850,241.127 119.400 C 241.781 119.950,242.510 120.400,242.749 120.400 C 242.987 120.400,243.476 120.850,243.837 121.400 C 244.197 121.950,244.748 122.400,245.062 122.400 C 245.375 122.400,246.337 123.120,247.200 124.000 C 248.063 124.880,248.859 125.600,248.970 125.600 C 249.173 125.600,249.905 126.208,252.280 128.346 C 252.985 128.981,253.840 129.606,254.180 129.737 C 254.521 129.868,254.800 130.219,254.800 130.518 C 254.800 130.816,255.250 131.483,255.800 132.000 C 256.350 132.517,256.800 133.247,256.800 133.623 C 256.800 133.999,257.160 134.401,257.600 134.516 C 258.079 134.641,258.400 135.062,258.400 135.563 C 258.400 136.124,258.655 136.400,259.173 136.400 C 259.607 136.400,260.063 136.769,260.213 137.241 C 260.477 138.073,261.963 140.498,262.845 141.537 C 263.931 142.816,264.350 147.677,263.568 149.919 C 262.709 152.384,257.017 153.073,255.393 150.909 C 255.169 150.611,254.618 150.149,254.169 149.883 C 251.681 148.413,250.447 147.500,250.248 146.982 C 250.126 146.662,249.672 146.400,249.240 146.400 C 248.807 146.400,248.347 146.062,248.216 145.649 C 248.057 145.149,247.447 144.814,246.389 144.645 C 245.427 144.491,244.800 144.173,244.800 143.838 C 244.800 143.192,243.943 142.800,242.530 142.800 C 241.879 142.800,241.455 142.532,241.326 142.040 C 241.185 141.500,240.628 141.205,239.397 141.020 C 238.444 140.878,237.467 140.522,237.225 140.230 C 236.983 139.938,235.982 139.475,235.000 139.200 C 234.018 138.925,233.010 138.453,232.759 138.150 C 232.508 137.848,231.611 137.600,230.766 137.600 C 229.921 137.600,228.278 137.211,227.115 136.736 C 223.816 135.390,209.682 135.362,207.600 136.699 C 206.830 137.193,205.634 137.598,204.943 137.599 C 204.178 137.599,203.593 137.843,203.448 138.219 C 203.317 138.559,202.668 139.027,202.005 139.258 C 201.342 139.489,200.800 139.808,200.800 139.966 C 200.800 140.125,199.809 141.319,198.597 142.621 C 197.385 143.923,196.293 145.306,196.170 145.694 C 196.047 146.082,195.690 146.400,195.378 146.400 C 195.023 146.400,194.712 147.007,194.551 148.015 C 194.409 148.903,193.986 149.848,193.611 150.115 C 193.184 150.418,192.834 151.404,192.677 152.746 C 192.526 154.042,192.166 155.083,191.768 155.374 C 191.260 155.745,191.036 156.905,190.789 160.428 C 190.614 162.943,190.289 165.467,190.068 166.039 C 189.544 167.394,189.507 173.545,189.994 178.154 C 190.206 180.159,190.562 184.528,190.785 187.862 C 191.008 191.195,191.472 194.975,191.817 196.262 C 192.161 197.548,192.551 200.670,192.683 203.200 C 192.846 206.335,193.120 208.104,193.542 208.753 C 194.000 209.457,194.237 211.395,194.450 216.153 C 194.608 219.699,194.941 223.230,195.191 224.000 C 196.471 227.952,196.524 261.719,195.256 265.400 C 195.029 266.060,194.669 269.120,194.456 272.200 C 194.243 275.280,193.803 278.610,193.478 279.600 C 193.153 280.590,192.782 282.907,192.653 284.748 C 192.523 286.590,192.204 288.354,191.943 288.668 C 191.682 288.983,191.246 290.863,190.973 292.846 C 190.700 294.829,190.211 296.755,189.886 297.126 C 189.561 297.497,189.214 298.832,189.115 300.094 C 189.014 301.387,188.660 302.696,188.304 303.094 C 187.957 303.482,187.545 304.847,187.387 306.128 C 187.187 307.756,186.875 308.596,186.350 308.924 C 185.847 309.238,185.600 309.857,185.600 310.802 C 185.600 311.577,185.253 312.860,184.828 313.652 C 184.404 314.444,183.931 315.791,183.778 316.646 C 183.624 317.501,183.268 318.470,182.987 318.800 C 182.705 319.130,182.273 320.157,182.027 321.082 C 181.780 322.007,181.344 322.999,181.057 323.286 C 180.770 323.573,180.403 324.332,180.243 324.972 C 180.082 325.613,179.602 326.580,179.175 327.122 C 178.749 327.664,178.400 328.523,178.400 329.031 C 178.400 329.539,178.067 330.190,177.661 330.477 C 177.254 330.765,176.797 331.670,176.645 332.489 C 176.492 333.308,176.124 334.118,175.827 334.289 C 175.529 334.460,175.006 335.275,174.663 336.100 C 174.321 336.925,173.852 337.600,173.620 337.600 C 173.389 337.600,173.200 337.938,173.200 338.351 C 173.200 338.764,172.905 339.347,172.545 339.645 C 172.185 339.944,171.562 340.956,171.160 341.894 C 170.757 342.832,170.242 343.600,170.014 343.600 C 169.786 343.600,169.600 343.951,169.600 344.380 C 169.600 344.809,169.365 345.304,169.078 345.480 C 168.499 345.835,166.313 349.007,165.894 350.100 C 165.746 350.485,165.349 350.800,165.013 350.800 C 164.676 350.800,164.400 351.091,164.400 351.446 C 164.400 351.801,163.500 353.130,162.400 354.400 C 161.300 355.670,160.400 356.895,160.400 357.124 C 160.400 357.795,158.379 360.000,157.764 360.000 C 157.454 360.000,157.200 360.276,157.200 360.613 C 157.200 360.949,156.885 361.343,156.500 361.486 C 156.115 361.630,155.575 362.060,155.300 362.442 C 155.024 362.824,154.214 363.251,153.500 363.392 C 152.785 363.532,151.796 363.846,151.303 364.089 C 149.954 364.755,146.103 363.360,145.369 361.940 C 145.065 361.353,144.589 360.796,144.310 360.703 C 143.336 360.379,143.374 353.849,144.359 352.180 C 144.822 351.396,145.200 350.249,145.200 349.631 C 145.200 349.013,145.543 348.072,145.961 347.540 C 146.380 347.007,146.927 345.813,147.177 344.886 C 147.427 343.959,147.800 343.200,148.008 343.200 C 148.215 343.200,148.508 342.705,148.658 342.100 C 148.809 341.495,149.262 340.410,149.666 339.688 C 150.070 338.966,150.400 338.065,150.400 337.685 C 150.400 337.305,150.850 336.148,151.400 335.115 C 151.950 334.082,152.400 332.806,152.400 332.280 C 152.400 331.754,152.737 331.019,153.150 330.646 C 153.562 330.273,153.997 329.241,154.116 328.353 C 154.235 327.464,154.596 326.527,154.918 326.269 C 155.240 326.011,155.614 324.926,155.750 323.858 C 155.885 322.790,156.345 321.260,156.771 320.458 C 157.198 319.656,157.622 318.053,157.715 316.896 C 157.808 315.739,158.159 314.479,158.495 314.096 C 158.865 313.675,159.222 312.137,159.397 310.206 C 159.556 308.449,160.005 306.199,160.395 305.206 C 160.850 304.046,161.210 301.611,161.399 298.400 C 161.580 295.336,161.947 292.780,162.347 291.800 C 163.340 289.368,163.318 251.346,162.323 249.125 C 161.853 248.078,161.584 245.875,161.392 241.525 C 161.189 236.923,160.942 235.002,160.399 233.800 C 159.942 232.788,159.575 230.666,159.401 228.029 C 159.227 225.389,158.903 223.519,158.519 222.932 C 158.146 222.364,157.834 220.652,157.711 218.503 C 157.591 216.406,157.270 214.617,156.911 214.047 C 156.581 213.522,156.157 211.859,155.967 210.350 C 155.778 208.841,155.339 207.173,154.991 206.643 C 154.644 206.113,154.250 204.357,154.115 202.740 C 153.955 200.817,153.662 199.647,153.269 199.357 C 152.839 199.040,152.586 197.753,152.386 194.861 C 152.231 192.632,151.899 190.560,151.648 190.258 C 149.841 188.081,149.971 161.127,151.814 155.697 C 152.137 154.748,152.401 153.303,152.401 152.486 C 152.402 151.669,152.736 150.454,153.143 149.786 C 153.550 149.119,154.008 147.738,154.161 146.719 C 154.314 145.700,154.678 144.667,154.970 144.425 C 155.262 144.183,155.725 143.182,156.000 142.200 C 156.275 141.218,156.747 140.210,157.050 139.959 C 157.352 139.708,157.600 139.199,157.600 138.829 C 157.600 138.458,158.050 137.545,158.600 136.800 C 159.150 136.055,159.600 135.031,159.600 134.526 C 159.600 134.020,159.960 133.382,160.400 133.107 C 160.840 132.832,161.200 132.407,161.200 132.162 C 161.200 131.917,161.650 131.231,162.200 130.638 C 162.750 130.044,163.200 129.349,163.200 129.093 C 163.200 128.838,163.551 128.262,163.981 127.814 C 165.768 125.951,166.400 125.182,166.400 124.868 C 166.400 124.685,166.850 124.294,167.400 124.000 C 167.950 123.706,168.400 123.225,168.400 122.932 C 168.400 122.640,168.557 122.400,168.750 122.400 C 168.942 122.400,169.899 121.635,170.876 120.700 C 172.759 118.898,175.718 116.800,176.377 116.800 C 176.594 116.800,176.963 116.442,177.197 116.005 C 177.432 115.567,178.055 115.101,178.582 114.969 C 179.110 114.836,179.852 114.384,180.233 113.964 C 180.613 113.544,181.322 113.200,181.808 113.200 C 182.294 113.200,183.121 112.863,183.646 112.451 C 184.171 112.039,185.406 111.566,186.391 111.401 C 187.376 111.235,188.578 110.840,189.060 110.524 C 189.543 110.207,190.987 109.856,192.269 109.743 C 193.551 109.630,194.960 109.373,195.400 109.171 C 198.297 107.841,211.132 107.691,214.149 108.953 M227.600 144.200 C 228.238 144.530,229.687 144.999,230.821 145.242 C 232.936 145.695,238.832 148.548,241.957 150.630 C 242.924 151.273,244.030 151.987,244.415 152.216 C 246.397 153.392,254.400 162.458,254.400 163.527 C 254.400 163.726,254.841 164.538,255.380 165.332 C 255.918 166.126,256.478 167.456,256.624 168.288 C 256.770 169.119,257.176 170.027,257.527 170.304 C 258.183 170.823,258.696 172.370,259.960 177.650 C 260.362 179.328,260.824 180.915,260.986 181.178 C 262.071 182.933,261.900 202.886,260.771 206.400 C 260.169 208.272,260.164 226.011,260.765 227.134 C 261.005 227.582,261.396 229.348,261.633 231.058 C 261.871 232.768,262.328 234.674,262.648 235.293 C 262.969 235.913,263.416 237.450,263.642 238.710 C 263.868 239.969,264.293 241.187,264.587 241.415 C 264.881 241.644,265.704 243.219,266.416 244.915 C 267.128 246.612,267.859 248.000,268.039 248.000 C 268.220 248.000,268.573 248.685,268.824 249.522 C 269.075 250.359,270.075 251.898,271.047 252.942 C 272.019 253.985,273.238 255.505,273.756 256.320 C 274.273 257.134,275.080 258.143,275.548 258.562 C 276.017 258.981,276.400 259.527,276.400 259.776 C 276.400 260.024,276.931 260.541,277.581 260.925 C 278.230 261.309,279.169 262.202,279.668 262.911 C 280.166 263.620,280.760 264.393,280.987 264.629 C 283.070 266.794,283.233 270.087,281.331 271.583 C 278.307 273.962,260.504 271.600,252.594 267.771 C 251.491 267.237,250.467 266.800,250.318 266.800 C 247.996 266.800,234.000 254.043,234.000 251.927 C 234.000 251.706,233.640 251.069,233.200 250.509 C 232.760 249.950,232.400 249.066,232.400 248.546 C 232.400 248.026,232.247 247.600,232.061 247.600 C 231.874 247.600,231.405 246.835,231.017 245.900 C 230.630 244.965,229.972 243.460,229.556 242.556 C 229.140 241.652,228.800 240.531,228.800 240.064 C 228.800 239.598,228.485 238.448,228.100 237.508 C 226.990 234.799,227.064 213.228,228.200 208.400 C 229.153 204.350,229.301 187.324,228.421 183.000 C 228.152 181.680,227.696 179.318,227.408 177.750 C 227.120 176.183,226.615 174.473,226.287 173.950 C 225.959 173.428,225.565 172.290,225.412 171.421 C 225.259 170.553,224.789 169.404,224.367 168.867 C 223.945 168.331,223.600 167.701,223.600 167.468 C 223.600 165.898,218.706 160.800,217.199 160.800 C 216.936 160.800,216.121 160.515,215.387 160.167 C 213.573 159.306,208.919 160.305,205.695 162.247 C 201.032 165.054,197.600 163.458,197.600 158.481 C 197.600 156.653,198.902 153.137,200.217 151.413 C 200.758 150.704,201.200 149.999,201.200 149.846 C 201.200 148.748,203.413 146.910,206.600 145.363 L 210.200 143.615 218.320 143.607 C 224.766 143.602,226.679 143.724,227.600 144.200 " stroke="none" fill="#ffffff" fill-rule="evenodd"></path><path id="path1" d="M167.600 57.972 C 167.600 58.176,166.570 58.557,165.311 58.818 C 164.052 59.080,162.060 59.858,160.885 60.547 C 159.710 61.236,158.435 61.980,158.052 62.200 C 156.947 62.834,151.600 68.445,151.600 68.970 C 151.600 69.231,151.150 70.055,150.600 70.800 C 150.050 71.545,149.600 72.558,149.600 73.049 C 149.600 73.541,149.365 74.181,149.077 74.471 C 148.789 74.762,148.309 75.900,148.011 77.000 C 147.712 78.100,147.227 79.355,146.934 79.789 C 146.071 81.064,146.179 94.292,147.059 95.265 C 147.422 95.666,147.861 96.898,148.036 98.002 C 148.211 99.107,148.634 100.291,148.977 100.634 C 149.320 100.977,149.600 101.500,149.600 101.798 C 149.600 102.095,150.050 102.873,150.600 103.527 C 151.150 104.181,151.600 104.893,151.600 105.109 C 151.600 105.326,152.635 106.289,153.900 107.250 C 155.165 108.212,156.290 109.093,156.400 109.209 C 158.773 111.708,168.080 112.607,170.800 110.600 C 171.545 110.050,172.480 109.600,172.878 109.600 C 173.275 109.600,173.947 109.285,174.372 108.900 C 174.797 108.515,175.723 107.750,176.431 107.200 C 179.133 105.101,182.363 101.686,182.622 100.655 C 182.771 100.063,183.231 99.397,183.646 99.175 C 184.106 98.929,184.400 98.340,184.400 97.664 C 184.400 97.054,184.850 95.945,185.400 95.200 C 185.950 94.455,186.400 93.334,186.400 92.709 C 186.400 92.085,186.689 90.905,187.041 90.087 C 188.038 87.776,188.319 78.194,187.445 76.352 C 187.081 75.585,186.621 73.959,186.423 72.739 C 186.224 71.519,185.688 69.908,185.232 69.160 C 184.776 68.412,184.402 67.583,184.401 67.318 C 184.401 67.053,183.995 66.414,183.500 65.899 C 183.005 65.383,182.104 64.430,181.498 63.781 C 178.926 61.025,176.212 59.401,173.554 59.027 C 172.539 58.884,171.369 58.510,170.954 58.196 C 170.114 57.560,167.600 57.392,167.600 57.972 M198.810 110.692 C 195.424 110.803,194.464 110.972,193.810 111.569 C 193.295 112.039,192.183 112.371,190.754 112.482 C 189.253 112.599,188.141 112.946,187.400 113.528 C 186.791 114.008,185.787 114.400,185.170 114.400 C 184.552 114.400,183.923 114.600,183.772 114.845 C 183.621 115.090,182.755 115.636,181.848 116.058 C 179.974 116.930,179.133 117.421,177.327 118.699 C 176.626 119.195,175.925 119.600,175.769 119.600 C 175.460 119.600,175.333 119.716,170.600 124.358 C 168.840 126.084,167.040 127.976,166.600 128.564 C 166.160 129.151,165.395 130.101,164.900 130.674 C 164.405 131.248,164.000 131.871,164.000 132.058 C 164.000 132.246,163.685 132.727,163.300 133.128 C 161.997 134.481,160.837 136.314,160.557 137.460 C 160.403 138.087,159.966 139.003,159.584 139.497 C 159.203 139.990,158.770 141.034,158.623 141.818 C 158.476 142.601,158.114 143.335,157.819 143.448 C 157.524 143.561,157.169 144.412,157.030 145.338 C 156.891 146.264,156.498 147.556,156.155 148.211 C 155.813 148.865,155.357 150.480,155.144 151.800 C 154.930 153.120,154.517 154.565,154.227 155.010 C 153.919 155.483,153.587 157.730,153.431 160.410 C 153.283 162.935,152.872 166.738,152.518 168.862 C 151.985 172.057,151.957 173.127,152.353 175.062 C 152.617 176.348,153.015 180.640,153.238 184.600 C 153.560 190.311,153.805 192.136,154.422 193.426 C 154.850 194.321,155.200 195.815,155.200 196.746 C 155.200 197.678,155.450 198.926,155.756 199.520 C 156.063 200.114,156.542 202.040,156.821 203.800 C 157.101 205.560,157.564 207.363,157.850 207.807 C 158.136 208.251,158.548 210.177,158.765 212.088 C 158.982 213.999,159.414 216.065,159.726 216.681 C 160.037 217.296,160.415 219.655,160.566 221.923 C 160.766 224.940,161.049 226.389,161.618 227.323 C 162.234 228.332,162.397 229.338,162.399 232.120 C 162.400 234.559,162.596 236.019,163.039 236.875 C 163.466 237.701,163.805 240.043,164.064 243.955 C 164.277 247.170,164.653 250.340,164.899 251.000 C 165.547 252.737,165.805 284.614,165.197 287.800 C 164.945 289.120,164.506 292.826,164.221 296.036 C 163.890 299.768,163.484 302.219,163.095 302.836 C 162.761 303.366,162.405 305.061,162.304 306.603 C 162.203 308.145,161.832 309.965,161.478 310.649 C 161.125 311.332,160.665 313.272,160.455 314.960 C 160.245 316.648,159.870 318.274,159.621 318.574 C 159.372 318.875,158.985 320.261,158.760 321.655 C 158.536 323.049,158.129 324.462,157.856 324.795 C 157.583 325.128,157.139 326.300,156.870 327.400 C 156.601 328.500,156.124 329.940,155.811 330.600 C 155.498 331.260,155.142 332.282,155.020 332.872 C 154.898 333.462,154.551 334.192,154.248 334.495 C 153.945 334.798,153.562 335.665,153.397 336.423 C 153.231 337.180,152.759 338.229,152.348 338.754 C 151.937 339.279,151.600 340.121,151.600 340.625 C 151.600 341.130,151.357 341.786,151.060 342.082 C 150.764 342.379,150.294 343.337,150.016 344.211 C 149.738 345.085,149.288 346.160,149.016 346.600 C 148.744 347.040,148.291 348.120,148.010 349.000 C 147.729 349.880,147.276 350.870,147.003 351.200 C 146.406 351.921,145.921 356.840,146.252 358.800 C 146.644 361.110,151.710 363.469,152.324 361.627 C 152.406 361.381,153.059 360.935,153.776 360.636 C 154.492 360.337,155.480 359.441,155.972 358.646 C 156.463 357.851,156.988 357.200,157.138 357.200 C 157.469 357.200,160.814 352.970,161.466 351.727 C 161.959 350.788,162.494 350.081,163.800 348.643 C 164.240 348.158,164.821 347.276,165.091 346.681 C 165.362 346.086,165.745 345.600,165.943 345.600 C 166.141 345.600,166.527 345.060,166.800 344.400 C 167.073 343.740,167.453 343.200,167.643 343.200 C 167.834 343.200,168.252 342.570,168.574 341.800 C 168.896 341.030,169.329 340.400,169.536 340.400 C 169.744 340.400,170.031 339.932,170.174 339.360 C 170.318 338.788,170.787 337.798,171.218 337.160 C 171.648 336.522,172.360 335.467,172.800 334.816 C 173.240 334.165,173.600 333.487,173.600 333.309 C 173.600 333.131,174.050 332.323,174.600 331.514 C 175.150 330.705,175.600 329.673,175.600 329.221 C 175.600 328.770,175.942 328.058,176.359 327.641 C 176.777 327.223,177.250 326.278,177.411 325.541 C 177.572 324.803,178.041 323.771,178.452 323.246 C 178.863 322.721,179.200 322.019,179.200 321.686 C 179.200 321.353,179.630 320.162,180.156 319.040 C 182.409 314.230,182.800 313.272,182.800 312.550 C 182.800 312.131,183.134 311.161,183.541 310.394 C 183.949 309.627,184.412 308.280,184.571 307.400 C 184.729 306.520,185.125 305.387,185.451 304.882 C 185.776 304.377,186.148 303.027,186.277 301.882 C 186.406 300.737,186.731 299.350,186.998 298.800 C 187.265 298.250,187.704 296.630,187.973 295.200 C 188.242 293.770,188.693 292.240,188.975 291.800 C 189.257 291.360,189.616 289.630,189.773 287.955 C 189.930 286.280,190.333 284.390,190.669 283.755 C 191.065 283.005,191.395 280.704,191.607 277.200 C 191.819 273.707,192.193 271.094,192.665 269.800 C 193.774 266.761,193.786 222.476,192.679 219.431 C 192.167 218.023,191.896 215.742,191.729 211.431 C 191.550 206.823,191.322 205.010,190.759 203.747 C 190.303 202.723,189.921 200.591,189.756 198.147 C 189.610 195.976,189.244 193.712,188.943 193.116 C 188.581 192.399,188.260 189.220,187.993 183.716 C 187.771 179.142,187.517 174.860,187.428 174.200 C 187.118 171.903,188.415 157.847,189.023 156.914 C 189.340 156.427,189.600 155.463,189.600 154.773 C 189.600 154.083,190.042 152.681,190.582 151.659 C 191.122 150.637,191.663 149.318,191.783 148.728 C 191.903 148.138,192.271 147.386,192.601 147.057 C 192.930 146.727,193.200 146.166,193.200 145.810 C 193.200 145.455,193.636 144.728,194.169 144.195 C 194.702 143.662,195.254 142.860,195.396 142.413 C 195.538 141.966,195.777 141.599,195.927 141.598 C 196.159 141.596,197.357 140.567,200.827 137.389 C 202.068 136.252,205.060 134.912,207.011 134.620 C 208.105 134.456,209.100 134.159,209.223 133.961 C 210.018 132.679,221.175 132.510,224.110 133.737 C 224.898 134.066,226.591 134.461,227.871 134.614 C 229.152 134.767,230.740 135.209,231.400 135.596 C 232.060 135.983,233.379 136.397,234.331 136.516 C 235.283 136.635,236.363 137.001,236.731 137.329 C 237.099 137.657,238.145 138.124,239.056 138.366 C 240.661 138.794,242.246 139.620,246.000 141.985 C 246.990 142.609,248.945 143.715,250.344 144.442 C 251.743 145.169,252.971 145.981,253.073 146.246 C 253.174 146.510,253.785 146.945,254.429 147.212 C 255.073 147.479,255.600 147.851,255.600 148.038 C 255.600 148.638,257.912 149.600,259.353 149.600 C 261.651 149.600,263.141 146.860,261.860 144.989 C 261.563 144.555,261.207 143.738,261.071 143.174 C 260.934 142.609,260.457 141.727,260.011 141.213 C 259.565 140.698,259.200 140.101,259.200 139.885 C 259.200 139.669,258.795 139.097,258.300 138.615 C 257.805 138.134,257.040 137.218,256.600 136.582 C 255.976 135.679,252.392 131.782,249.708 129.091 C 248.422 127.800,246.755 126.400,246.504 126.398 C 246.246 126.397,243.690 124.251,241.600 122.280 C 241.270 121.969,240.510 121.597,239.912 121.453 C 239.313 121.308,238.632 120.833,238.397 120.395 C 238.163 119.958,237.653 119.600,237.264 119.600 C 236.874 119.600,235.945 119.150,235.200 118.600 C 234.455 118.050,233.542 117.600,233.171 117.600 C 232.801 117.600,232.282 117.339,232.017 117.020 C 231.752 116.702,230.875 116.226,230.068 115.964 C 229.261 115.701,228.245 115.242,227.811 114.943 C 227.377 114.644,226.522 114.400,225.911 114.400 C 225.300 114.400,224.446 114.046,224.014 113.614 C 223.459 113.059,222.287 112.710,220.018 112.426 C 218.252 112.205,216.401 111.769,215.904 111.457 C 214.908 110.834,206.256 110.446,198.810 110.692 " stroke="none" fill="#012b5f" fill-rule="evenodd"></path><path id="path2" d="M164.200 57.939 C 158.463 60.010,154.053 63.375,151.289 67.790 C 150.734 68.675,150.172 69.490,150.040 69.600 C 149.749 69.842,148.023 73.741,146.800 76.920 C 144.735 82.286,144.736 92.401,146.802 98.005 C 150.515 108.075,155.874 112.207,165.200 112.190 C 171.108 112.180,171.002 112.213,176.341 108.686 C 179.741 106.441,185.200 100.029,185.200 98.281 C 185.200 98.004,185.475 97.385,185.811 96.905 C 188.591 92.936,189.777 82.808,188.352 75.200 C 185.950 62.369,174.531 54.209,164.200 57.939 M170.954 58.196 C 171.369 58.510,172.539 58.884,173.554 59.027 C 176.212 59.401,178.926 61.025,181.498 63.781 C 182.104 64.430,183.005 65.383,183.500 65.899 C 183.995 66.414,184.401 67.053,184.401 67.318 C 184.402 67.583,184.776 68.412,185.232 69.160 C 185.688 69.908,186.224 71.519,186.423 72.739 C 186.621 73.959,187.081 75.585,187.445 76.352 C 188.319 78.194,188.038 87.776,187.041 90.087 C 186.689 90.905,186.400 92.085,186.400 92.709 C 186.400 93.334,185.950 94.455,185.400 95.200 C 184.850 95.945,184.400 97.054,184.400 97.664 C 184.400 98.340,184.106 98.929,183.646 99.175 C 183.231 99.397,182.771 100.063,182.622 100.655 C 182.363 101.686,179.133 105.101,176.431 107.200 C 175.723 107.750,174.797 108.515,174.372 108.900 C 173.947 109.285,173.275 109.600,172.878 109.600 C 172.480 109.600,171.545 110.050,170.800 110.600 C 168.080 112.607,158.773 111.708,156.400 109.209 C 156.290 109.093,155.165 108.212,153.900 107.250 C 152.635 106.289,151.600 105.326,151.600 105.109 C 151.600 104.893,151.150 104.181,150.600 103.527 C 150.050 102.873,149.600 102.095,149.600 101.798 C 149.600 101.500,149.320 100.977,148.977 100.634 C 148.634 100.291,148.211 99.107,148.036 98.002 C 147.861 96.898,147.422 95.666,147.059 95.265 C 146.179 94.292,146.071 81.064,146.934 79.789 C 147.227 79.355,147.712 78.100,148.011 77.000 C 148.309 75.900,148.789 74.762,149.077 74.471 C 149.365 74.181,149.600 73.541,149.600 73.049 C 149.600 72.558,150.050 71.545,150.600 70.800 C 151.150 70.055,151.600 69.231,151.600 68.970 C 151.600 68.445,156.947 62.834,158.052 62.200 C 158.435 61.980,159.710 61.236,160.885 60.547 C 162.060 59.858,164.052 59.080,165.311 58.818 C 166.570 58.557,167.600 58.176,167.600 57.972 C 167.600 57.392,170.114 57.560,170.954 58.196 M196.400 109.987 C 194.970 110.175,193.260 110.544,192.600 110.808 C 191.940 111.072,190.328 111.545,189.018 111.859 C 183.343 113.217,174.301 118.749,169.200 123.982 C 166.695 126.552,166.607 126.660,163.498 131.000 C 162.238 132.760,161.063 134.380,160.888 134.600 C 160.713 134.820,160.322 135.630,160.019 136.400 C 159.716 137.170,159.228 138.084,158.934 138.431 C 158.640 138.779,158.400 139.226,158.400 139.426 C 158.400 139.625,157.974 140.691,157.452 141.794 C 156.071 144.718,154.852 147.998,154.550 149.600 C 154.406 150.370,154.129 151.310,153.935 151.689 C 153.458 152.624,152.813 155.969,152.409 159.600 C 152.226 161.250,151.857 163.950,151.590 165.600 C 151.047 168.957,151.331 183.501,151.963 184.702 C 152.165 185.086,152.522 187.200,152.756 189.400 C 153.163 193.221,154.656 200.358,156.395 206.800 C 156.840 208.450,157.549 211.600,157.970 213.800 C 158.391 216.000,158.909 218.354,159.121 219.032 C 159.332 219.710,159.628 221.600,159.779 223.232 C 159.930 224.864,160.300 227.100,160.601 228.200 C 160.902 229.300,161.336 231.910,161.566 234.000 C 161.796 236.090,162.177 238.700,162.413 239.800 C 162.648 240.900,163.004 243.870,163.204 246.400 C 164.050 257.145,164.395 262.078,164.614 266.600 C 164.995 274.479,163.452 296.989,162.242 301.200 C 161.894 302.410,161.607 304.052,161.605 304.848 C 161.602 305.644,161.240 307.423,160.800 308.800 C 160.360 310.177,160.000 311.692,160.000 312.165 C 160.000 312.638,159.721 314.010,159.381 315.213 C 159.040 316.416,158.502 318.531,158.184 319.913 C 157.867 321.296,157.335 322.952,157.003 323.594 C 156.672 324.235,156.400 325.141,156.400 325.606 C 156.400 326.072,156.181 326.846,155.913 327.326 C 155.646 327.807,155.044 329.280,154.577 330.600 C 153.243 334.367,150.327 341.379,150.002 341.600 C 149.840 341.710,149.575 342.250,149.414 342.800 C 149.102 343.859,147.561 347.394,146.536 349.399 C 142.186 357.912,147.414 366.247,154.251 361.698 C 156.110 360.461,156.719 359.742,163.141 351.200 C 164.713 349.110,166.224 347.138,166.499 346.818 C 166.775 346.498,167.580 345.328,168.289 344.218 C 168.998 343.108,169.853 341.848,170.189 341.419 C 170.525 340.989,170.800 340.469,170.800 340.264 C 170.800 340.058,171.574 338.700,172.519 337.245 C 176.258 331.492,182.590 317.302,184.944 309.400 C 185.206 308.520,185.716 306.990,186.076 306.000 C 187.397 302.374,190.400 291.241,190.400 289.971 C 190.400 289.427,190.761 287.727,191.201 286.191 C 191.642 284.656,192.102 281.870,192.224 280.000 C 192.345 278.130,192.698 275.610,193.007 274.400 C 193.777 271.387,194.789 255.481,194.814 246.000 C 194.841 236.078,193.604 213.777,192.971 212.753 C 192.868 212.587,192.608 210.584,192.391 208.301 C 192.175 206.018,191.642 202.542,191.208 200.575 C 190.773 198.609,190.407 196.190,190.395 195.200 C 190.382 194.210,190.112 192.230,189.795 190.800 C 187.632 181.045,188.457 159.416,191.227 153.289 C 191.652 152.348,192.000 151.376,192.000 151.128 C 192.000 148.486,198.577 139.410,201.047 138.643 C 201.513 138.498,202.216 138.024,202.609 137.590 C 203.002 137.155,203.575 136.800,203.882 136.800 C 204.189 136.800,204.950 136.536,205.574 136.213 C 210.433 133.701,224.264 133.673,229.800 136.165 C 230.460 136.462,231.720 136.833,232.600 136.989 C 233.480 137.146,234.650 137.508,235.200 137.794 C 235.750 138.081,238.630 139.495,241.600 140.936 C 246.283 143.208,251.774 146.387,252.400 147.187 C 252.510 147.327,253.242 147.832,254.026 148.308 C 254.811 148.784,255.784 149.540,256.188 149.987 C 258.478 152.517,263.200 150.231,263.200 146.592 C 263.200 142.170,254.499 131.274,244.999 123.800 C 241.790 121.275,238.232 118.800,237.811 118.800 C 237.722 118.800,235.724 117.729,233.369 116.420 C 231.015 115.110,228.529 113.918,227.844 113.771 C 227.160 113.623,225.942 113.170,225.139 112.763 C 224.335 112.356,222.715 111.849,221.539 111.636 C 220.362 111.423,218.320 110.964,217.000 110.616 C 214.169 109.869,200.482 109.451,196.400 109.987 M215.904 111.457 C 216.401 111.769,218.252 112.205,220.018 112.426 C 222.287 112.710,223.459 113.059,224.014 113.614 C 224.446 114.046,225.300 114.400,225.911 114.400 C 226.522 114.400,227.377 114.644,227.811 114.943 C 228.245 115.242,229.261 115.701,230.068 115.964 C 230.875 116.226,231.752 116.702,232.017 117.020 C 232.282 117.339,232.801 117.600,233.171 117.600 C 233.542 117.600,234.455 118.050,235.200 118.600 C 235.945 119.150,236.874 119.600,237.264 119.600 C 237.653 119.600,238.163 119.958,238.397 120.395 C 238.632 120.833,239.313 121.308,239.912 121.453 C 240.510 121.597,241.270 121.969,241.600 122.280 C 243.690 124.251,246.246 126.397,246.504 126.398 C 246.755 126.400,248.422 127.800,249.708 129.091 C 252.392 131.782,255.976 135.679,256.600 136.582 C 257.040 137.218,257.805 138.134,258.300 138.615 C 258.795 139.097,259.200 139.669,259.200 139.885 C 259.200 140.101,259.565 140.698,260.011 141.213 C 260.457 141.727,260.934 142.609,261.071 143.174 C 261.207 143.738,261.563 144.555,261.860 144.989 C 263.141 146.860,261.651 149.600,259.353 149.600 C 257.912 149.600,255.600 148.638,255.600 148.038 C 255.600 147.851,255.073 147.479,254.429 147.212 C 253.785 146.945,253.174 146.510,253.073 146.246 C 252.971 145.981,251.743 145.169,250.344 144.442 C 248.945 143.715,246.990 142.609,246.000 141.985 C 242.246 139.620,240.661 138.794,239.056 138.366 C 238.145 138.124,237.099 137.657,236.731 137.329 C 236.363 137.001,235.283 136.635,234.331 136.516 C 233.379 136.397,232.060 135.983,231.400 135.596 C 230.740 135.209,229.152 134.767,227.871 134.614 C 226.591 134.461,224.898 134.066,224.110 133.737 C 221.175 132.510,210.018 132.679,209.223 133.961 C 209.100 134.159,208.105 134.456,207.011 134.620 C 205.060 134.912,202.068 136.252,200.827 137.389 C 197.357 140.567,196.159 141.596,195.927 141.598 C 195.777 141.599,195.538 141.966,195.396 142.413 C 195.254 142.860,194.702 143.662,194.169 144.195 C 193.636 144.728,193.200 145.455,193.200 145.810 C 193.200 146.166,192.930 146.727,192.601 147.057 C 192.271 147.386,191.903 148.138,191.783 148.728 C 191.663 149.318,191.122 150.637,190.582 151.659 C 190.042 152.681,189.600 154.083,189.600 154.773 C 189.600 155.463,189.340 156.427,189.023 156.914 C 188.415 157.847,187.118 171.903,187.428 174.200 C 187.517 174.860,187.771 179.142,187.993 183.716 C 188.260 189.220,188.581 192.399,188.943 193.116 C 189.244 193.712,189.610 195.976,189.756 198.147 C 189.921 200.591,190.303 202.723,190.759 203.747 C 191.322 205.010,191.550 206.823,191.729 211.431 C 191.896 215.742,192.167 218.023,192.679 219.431 C 193.786 222.476,193.774 266.761,192.665 269.800 C 192.193 271.094,191.819 273.707,191.607 277.200 C 191.395 280.704,191.065 283.005,190.669 283.755 C 190.333 284.390,189.930 286.280,189.773 287.955 C 189.616 289.630,189.257 291.360,188.975 291.800 C 188.693 292.240,188.242 293.770,187.973 295.200 C 187.704 296.630,187.265 298.250,186.998 298.800 C 186.731 299.350,186.406 300.737,186.277 301.882 C 186.148 303.027,185.776 304.377,185.451 304.882 C 185.125 305.387,184.729 306.520,184.571 307.400 C 184.412 308.280,183.949 309.627,183.541 310.394 C 183.134 311.161,182.800 312.131,182.800 312.550 C 182.800 313.272,182.409 314.230,180.156 319.040 C 179.630 320.162,179.200 321.353,179.200 321.686 C 179.200 322.019,178.863 322.721,178.452 323.246 C 178.041 323.771,177.572 324.803,177.411 325.541 C 177.250 326.278,176.777 327.223,176.359 327.641 C 175.942 328.058,175.600 328.770,175.600 329.221 C 175.600 329.673,175.150 330.705,174.600 331.514 C 174.050 332.323,173.600 333.131,173.600 333.309 C 173.600 333.487,173.240 334.165,172.800 334.816 C 172.360 335.467,171.648 336.522,171.218 337.160 C 170.787 337.798,170.318 338.788,170.174 339.360 C 170.031 339.932,169.744 340.400,169.536 340.400 C 169.329 340.400,168.896 341.030,168.574 341.800 C 168.252 342.570,167.834 343.200,167.643 343.200 C 167.453 343.200,167.073 343.740,166.800 344.400 C 166.527 345.060,166.141 345.600,165.943 345.600 C 165.745 345.600,165.362 346.086,165.091 346.681 C 164.821 347.276,164.240 348.158,163.800 348.643 C 162.494 350.081,161.959 350.788,161.466 351.727 C 160.814 352.970,157.469 357.200,157.138 357.200 C 156.988 357.200,156.463 357.851,155.972 358.646 C 155.480 359.441,154.492 360.337,153.776 360.636 C 153.059 360.935,152.406 361.381,152.324 361.627 C 151.710 363.469,146.644 361.110,146.252 358.800 C 145.921 356.840,146.406 351.921,147.003 351.200 C 147.276 350.870,147.729 349.880,148.010 349.000 C 148.291 348.120,148.744 347.040,149.016 346.600 C 149.288 346.160,149.738 345.085,150.016 344.211 C 150.294 343.337,150.764 342.379,151.060 342.082 C 151.357 341.786,151.600 341.130,151.600 340.625 C 151.600 340.121,151.937 339.279,152.348 338.754 C 152.759 338.229,153.231 337.180,153.397 336.423 C 153.562 335.665,153.945 334.798,154.248 334.495 C 154.551 334.192,154.898 333.462,155.020 332.872 C 155.142 332.282,155.498 331.260,155.811 330.600 C 156.124 329.940,156.601 328.500,156.870 327.400 C 157.139 326.300,157.583 325.128,157.856 324.795 C 158.129 324.462,158.536 323.049,158.760 321.655 C 158.985 320.261,159.372 318.875,159.621 318.574 C 159.870 318.274,160.245 316.648,160.455 314.960 C 160.665 313.272,161.125 311.332,161.478 310.649 C 161.832 309.965,162.203 308.145,162.304 306.603 C 162.405 305.061,162.761 303.366,163.095 302.836 C 163.484 302.219,163.890 299.768,164.221 296.036 C 164.506 292.826,164.945 289.120,165.197 287.800 C 165.805 284.614,165.547 252.737,164.899 251.000 C 164.653 250.340,164.277 247.170,164.064 243.955 C 163.805 240.043,163.466 237.701,163.039 236.875 C 162.596 236.019,162.400 234.559,162.399 232.120 C 162.397 229.338,162.234 228.332,161.618 227.323 C 161.049 226.389,160.766 224.940,160.566 221.923 C 160.415 219.655,160.037 217.296,159.726 216.681 C 159.414 216.065,158.982 213.999,158.765 212.088 C 158.548 210.177,158.136 208.251,157.850 207.807 C 157.564 207.363,157.101 205.560,156.821 203.800 C 156.542 202.040,156.063 200.114,155.756 199.520 C 155.450 198.926,155.200 197.678,155.200 196.746 C 155.200 195.815,154.850 194.321,154.422 193.426 C 153.805 192.136,153.560 190.311,153.238 184.600 C 153.015 180.640,152.617 176.348,152.353 175.062 C 151.957 173.127,151.985 172.057,152.518 168.862 C 152.872 166.738,153.283 162.935,153.431 160.410 C 153.587 157.730,153.919 155.483,154.227 155.010 C 154.517 154.565,154.930 153.120,155.144 151.800 C 155.357 150.480,155.813 148.865,156.155 148.211 C 156.498 147.556,156.891 146.264,157.030 145.338 C 157.169 144.412,157.524 143.561,157.819 143.448 C 158.114 143.335,158.476 142.601,158.623 141.818 C 158.770 141.034,159.203 139.990,159.584 139.497 C 159.966 139.003,160.403 138.087,160.557 137.460 C 160.837 136.314,161.997 134.481,163.300 133.128 C 163.685 132.727,164.000 132.246,164.000 132.058 C 164.000 131.871,164.405 131.248,164.900 130.674 C 165.395 130.101,166.160 129.151,166.600 128.564 C 167.040 127.976,168.840 126.084,170.600 124.358 C 175.333 119.716,175.460 119.600,175.769 119.600 C 175.925 119.600,176.626 119.195,177.327 118.699 C 179.133 117.421,179.974 116.930,181.848 116.058 C 182.755 115.636,183.621 115.090,183.772 114.845 C 183.923 114.600,184.552 114.400,185.170 114.400 C 185.787 114.400,186.791 114.008,187.400 113.528 C 188.141 112.946,189.253 112.599,190.754 112.482 C 192.183 112.371,193.295 112.039,193.810 111.569 C 195.172 110.326,213.946 110.231,215.904 111.457 " stroke="none" fill="#4c749e" fill-rule="evenodd"></path><path id="path3" d="M239.600 69.615 C 238.390 70.061,236.643 70.670,235.719 70.968 C 234.026 71.514,227.600 77.236,227.600 78.197 C 227.600 78.442,227.175 79.533,226.655 80.621 C 223.508 87.210,223.402 95.439,226.390 101.109 C 227.055 102.369,227.599 103.635,227.599 103.923 C 227.602 105.894,236.854 113.247,240.315 114.030 C 244.849 115.055,252.767 114.125,255.600 112.235 C 265.644 105.533,268.619 93.626,263.333 81.291 C 262.313 78.912,255.271 71.207,254.112 71.203 C 253.624 71.201,251.824 70.739,250.112 70.176 C 245.816 68.762,242.408 68.580,239.600 69.615 M211.400 144.746 C 203.356 146.890,196.725 156.227,199.527 161.464 C 200.001 162.350,203.820 162.179,204.976 161.220 C 205.938 160.421,211.992 158.400,213.422 158.400 C 216.929 158.400,222.541 162.635,224.846 167.021 C 225.302 167.889,226.109 169.352,226.638 170.271 C 227.167 171.190,227.603 172.540,227.607 173.271 C 227.612 174.002,228.080 176.310,228.647 178.400 C 230.350 184.670,230.373 211.505,228.677 213.549 C 227.940 214.436,228.017 232.883,228.766 235.000 C 229.077 235.880,229.552 237.680,229.822 239.000 C 230.731 243.446,233.682 249.872,236.052 252.564 C 236.903 253.531,237.600 254.508,237.600 254.735 C 237.600 254.961,238.365 255.779,239.300 256.553 C 240.235 257.326,241.360 258.509,241.800 259.182 C 242.240 259.854,242.949 260.517,243.377 260.654 C 243.804 260.791,245.064 261.626,246.177 262.509 C 248.117 264.050,253.281 266.800,254.235 266.800 C 254.486 266.800,255.142 267.154,255.691 267.586 C 256.240 268.018,257.389 268.550,258.245 268.768 C 259.100 268.986,260.880 269.439,262.200 269.776 C 263.520 270.112,265.500 270.397,266.600 270.408 C 267.700 270.419,269.680 270.689,271.000 271.008 C 275.120 272.003,279.086 271.647,280.853 270.124 C 282.212 268.952,280.564 265.776,276.202 261.163 C 275.247 260.153,274.109 258.740,273.673 258.023 C 273.237 257.306,272.322 256.381,271.640 255.966 C 270.958 255.551,270.400 254.953,270.400 254.637 C 270.400 254.320,269.977 253.553,269.460 252.931 C 268.942 252.309,268.447 251.620,268.360 251.400 C 268.272 251.180,266.985 248.731,265.500 245.957 C 264.015 243.183,262.800 240.560,262.800 240.128 C 262.800 239.696,262.546 238.545,262.235 237.571 C 259.460 228.874,258.558 214.747,260.028 203.000 C 261.227 193.424,260.553 182.459,258.379 176.139 C 257.951 174.894,257.600 173.391,257.600 172.799 C 257.600 172.208,257.258 171.414,256.840 171.036 C 256.421 170.657,255.964 169.734,255.823 168.984 C 255.583 167.700,253.247 163.934,249.879 159.400 C 248.135 157.051,248.387 157.310,245.600 155.005 C 244.390 154.004,242.841 152.648,242.157 151.992 C 241.473 151.337,240.766 150.800,240.584 150.800 C 240.403 150.800,238.217 149.805,235.727 148.590 C 233.237 147.374,230.614 146.269,229.900 146.133 C 229.185 145.997,228.070 145.619,227.423 145.293 C 226.083 144.618,213.492 144.188,211.400 144.746 " stroke="none" fill="#eb7012" fill-rule="evenodd"></path><path id="path4" d="M162.800 56.990 C 162.250 57.308,161.530 57.679,161.200 57.814 C 160.392 58.143,158.451 59.103,157.074 59.854 C 156.455 60.192,155.851 60.723,155.732 61.034 C 155.612 61.345,155.267 61.600,154.965 61.600 C 154.663 61.600,154.307 62.033,154.174 62.562 C 154.041 63.091,153.587 63.615,153.166 63.725 C 152.745 63.835,152.400 64.212,152.400 64.563 C 152.400 64.913,152.126 65.200,151.791 65.200 C 151.457 65.200,150.962 65.693,150.691 66.295 C 150.421 66.896,149.885 67.706,149.500 68.095 C 149.115 68.483,148.800 69.154,148.800 69.586 C 148.800 70.018,148.461 70.553,148.047 70.775 C 147.620 71.004,147.172 71.833,147.013 72.689 C 146.858 73.520,146.435 74.531,146.072 74.935 C 145.622 75.437,145.364 76.613,145.262 78.635 C 145.180 80.266,144.981 81.600,144.820 81.600 C 143.515 81.600,143.088 90.073,144.260 92.713 C 144.623 93.531,145.049 95.439,145.206 96.954 C 145.402 98.835,145.694 99.821,146.130 100.065 C 146.481 100.261,146.888 101.061,147.034 101.843 C 147.181 102.624,147.562 103.364,147.881 103.486 C 148.200 103.609,148.623 104.135,148.821 104.655 C 149.018 105.175,149.455 105.600,149.790 105.600 C 150.126 105.600,150.400 105.946,150.400 106.368 C 150.400 107.181,153.753 110.800,154.506 110.800 C 154.749 110.800,155.343 111.171,155.825 111.624 C 156.411 112.174,157.480 112.528,159.045 112.690 C 160.334 112.823,161.629 113.172,161.923 113.466 C 162.821 114.363,166.429 114.305,167.886 113.369 C 168.373 113.056,169.575 112.800,170.557 112.800 C 171.539 112.800,172.587 112.556,172.886 112.257 C 173.185 111.958,174.126 111.463,174.977 111.157 C 175.829 110.851,176.608 110.285,176.709 109.900 C 176.810 109.515,177.195 109.200,177.565 109.200 C 178.353 109.200,184.000 103.513,184.000 102.719 C 184.000 102.421,184.360 101.870,184.800 101.493 C 185.240 101.116,185.600 100.368,185.600 99.831 C 185.600 99.227,185.886 98.763,186.351 98.616 C 186.860 98.454,187.188 97.838,187.370 96.699 C 187.517 95.776,187.922 94.707,188.269 94.323 C 188.617 93.940,189.022 92.495,189.170 91.113 C 189.319 89.731,189.699 88.150,190.015 87.600 C 190.852 86.142,190.730 77.798,189.846 76.089 C 189.491 75.402,189.200 74.133,189.200 73.268 C 189.200 71.590,187.428 67.213,186.532 66.678 C 186.235 66.501,185.733 65.736,185.417 64.978 C 185.100 64.220,184.647 63.600,184.411 63.600 C 184.174 63.600,183.809 63.150,183.600 62.600 C 183.391 62.050,183.058 61.600,182.860 61.600 C 182.663 61.600,181.720 60.886,180.765 60.013 C 179.810 59.140,178.482 58.307,177.814 58.161 C 177.146 58.015,176.171 57.559,175.646 57.148 C 174.389 56.162,164.443 56.040,162.800 56.990 M175.014 58.191 C 183.452 61.567,187.894 68.491,189.021 80.025 C 189.497 84.898,187.736 94.157,185.811 96.905 C 185.475 97.385,185.200 98.004,185.200 98.281 C 185.200 100.029,179.741 106.441,176.341 108.686 C 171.002 112.213,171.108 112.180,165.200 112.190 C 155.874 112.207,150.515 108.075,146.802 98.005 C 144.736 92.401,144.735 82.286,146.800 76.920 C 148.023 73.741,149.749 69.842,150.040 69.600 C 150.172 69.490,150.734 68.675,151.289 67.790 C 156.617 59.279,167.116 55.031,175.014 58.191 M241.600 68.000 C 241.270 68.213,240.640 68.392,240.200 68.396 C 238.886 68.410,236.467 69.190,235.862 69.795 C 235.551 70.106,234.780 70.487,234.148 70.641 C 233.517 70.796,232.640 71.242,232.200 71.633 C 230.383 73.248,227.205 76.624,227.202 76.942 C 227.201 77.130,226.750 77.819,226.200 78.473 C 225.650 79.127,225.200 79.980,225.200 80.369 C 225.200 80.759,224.902 81.674,224.538 82.404 C 223.015 85.458,222.945 97.559,224.438 99.684 C 224.857 100.280,225.200 101.111,225.200 101.530 C 225.200 101.949,225.535 102.721,225.945 103.246 C 226.355 103.771,226.829 104.650,226.999 105.200 C 227.410 106.532,233.296 112.237,234.595 112.563 C 235.159 112.705,235.976 113.176,236.410 113.610 C 236.845 114.045,237.520 114.400,237.911 114.400 C 238.302 114.400,239.067 114.715,239.611 115.100 C 240.896 116.009,251.011 116.154,251.557 115.271 C 251.736 114.979,252.620 114.576,253.520 114.374 C 256.307 113.747,263.600 107.448,263.600 105.667 C 263.600 105.273,263.972 104.551,264.427 104.063 C 264.882 103.575,265.349 102.506,265.465 101.688 C 265.581 100.869,265.974 99.570,266.338 98.800 C 267.277 96.814,267.292 87.812,266.359 86.382 C 266.006 85.842,265.590 84.548,265.435 83.507 C 265.280 82.465,264.919 81.475,264.633 81.307 C 264.347 81.138,263.886 80.302,263.609 79.450 C 263.126 77.965,258.086 72.400,257.224 72.400 C 257.021 72.400,256.740 72.040,256.600 71.600 C 256.460 71.160,256.151 70.800,255.913 70.800 C 255.675 70.800,254.562 70.367,253.440 69.838 C 250.209 68.315,242.875 67.176,241.600 68.000 M250.112 70.176 C 251.824 70.739,253.624 71.201,254.112 71.203 C 255.271 71.207,262.313 78.912,263.333 81.291 C 268.619 93.626,265.644 105.533,255.600 112.235 C 252.767 114.125,244.849 115.055,240.315 114.030 C 236.854 113.247,227.602 105.894,227.599 103.923 C 227.599 103.635,227.055 102.369,226.390 101.109 C 223.402 95.439,223.508 87.210,226.655 80.621 C 227.175 79.533,227.600 78.442,227.600 78.197 C 227.600 77.236,234.026 71.514,235.719 70.968 C 236.643 70.670,238.390 70.061,239.600 69.615 C 242.408 68.580,245.816 68.762,250.112 70.176 M197.800 108.414 C 196.920 108.628,195.840 108.969,195.400 109.171 C 194.960 109.373,193.551 109.630,192.269 109.743 C 190.987 109.856,189.543 110.207,189.060 110.524 C 188.578 110.840,187.376 111.235,186.391 111.401 C 185.406 111.566,184.171 112.039,183.646 112.451 C 183.121 112.863,182.294 113.200,181.808 113.200 C 181.322 113.200,180.613 113.544,180.233 113.964 C 179.852 114.384,179.110 114.836,178.582 114.969 C 178.055 115.101,177.432 115.567,177.197 116.005 C 176.963 116.442,176.594 116.800,176.377 116.800 C 175.718 116.800,172.759 118.898,170.876 120.700 C 169.899 121.635,168.942 122.400,168.750 122.400 C 168.557 122.400,168.400 122.640,168.400 122.932 C 168.400 123.225,167.950 123.706,167.400 124.000 C 166.850 124.294,166.400 124.685,166.400 124.868 C 166.400 125.182,165.768 125.951,163.981 127.814 C 163.551 128.262,163.200 128.838,163.200 129.093 C 163.200 129.349,162.750 130.044,162.200 130.638 C 161.650 131.231,161.200 131.917,161.200 132.162 C 161.200 132.407,160.840 132.832,160.400 133.107 C 159.960 133.382,159.600 134.020,159.600 134.526 C 159.600 135.031,159.150 136.055,158.600 136.800 C 158.050 137.545,157.600 138.458,157.600 138.829 C 157.600 139.199,157.352 139.708,157.050 139.959 C 156.747 140.210,156.275 141.218,156.000 142.200 C 155.725 143.182,155.262 144.183,154.970 144.425 C 154.678 144.667,154.314 145.700,154.161 146.719 C 154.008 147.738,153.550 149.119,153.143 149.786 C 152.736 150.454,152.402 151.669,152.401 152.486 C 152.401 153.303,152.137 154.748,151.814 155.697 C 149.971 161.127,149.841 188.081,151.648 190.258 C 151.899 190.560,152.231 192.632,152.386 194.861 C 152.586 197.753,152.839 199.040,153.269 199.357 C 153.662 199.647,153.955 200.817,154.115 202.740 C 154.250 204.357,154.644 206.113,154.991 206.643 C 155.339 207.173,155.778 208.841,155.967 210.350 C 156.157 211.859,156.581 213.522,156.911 214.047 C 157.270 214.617,157.591 216.406,157.711 218.503 C 157.834 220.652,158.146 222.364,158.519 222.932 C 158.903 223.519,159.227 225.389,159.401 228.029 C 159.575 230.666,159.942 232.788,160.399 233.800 C 160.942 235.002,161.189 236.923,161.392 241.525 C 161.584 245.875,161.853 248.078,162.323 249.125 C 163.318 251.346,163.340 289.368,162.347 291.800 C 161.947 292.780,161.580 295.336,161.399 298.400 C 161.210 301.611,160.850 304.046,160.395 305.206 C 160.005 306.199,159.556 308.449,159.397 310.206 C 159.222 312.137,158.865 313.675,158.495 314.096 C 158.159 314.479,157.808 315.739,157.715 316.896 C 157.622 318.053,157.198 319.656,156.771 320.458 C 156.345 321.260,155.885 322.790,155.750 323.858 C 155.614 324.926,155.240 326.011,154.918 326.269 C 154.596 326.527,154.235 327.464,154.116 328.353 C 153.997 329.241,153.562 330.273,153.150 330.646 C 152.737 331.019,152.400 331.754,152.400 332.280 C 152.400 332.806,151.950 334.082,151.400 335.115 C 150.850 336.148,150.400 337.305,150.400 337.685 C 150.400 338.065,150.070 338.966,149.666 339.688 C 149.262 340.410,148.809 341.495,148.658 342.100 C 148.508 342.705,148.215 343.200,148.008 343.200 C 147.800 343.200,147.427 343.959,147.177 344.886 C 146.927 345.813,146.380 347.007,145.961 347.540 C 145.543 348.072,145.200 349.013,145.200 349.631 C 145.200 350.249,144.822 351.396,144.359 352.180 C 143.374 353.849,143.336 360.379,144.310 360.703 C 144.589 360.796,145.065 361.353,145.369 361.940 C 146.103 363.360,149.954 364.755,151.303 364.089 C 151.796 363.846,152.785 363.532,153.500 363.392 C 154.214 363.251,155.024 362.824,155.300 362.442 C 155.575 362.060,156.115 361.630,156.500 361.486 C 156.885 361.343,157.200 360.949,157.200 360.613 C 157.200 360.276,157.454 360.000,157.764 360.000 C 158.379 360.000,160.400 357.795,160.400 357.124 C 160.400 356.895,161.300 355.670,162.400 354.400 C 163.500 353.130,164.400 351.801,164.400 351.446 C 164.400 351.091,164.676 350.800,165.013 350.800 C 165.349 350.800,165.746 350.485,165.894 350.100 C 166.313 349.007,168.499 345.835,169.078 345.480 C 169.365 345.304,169.600 344.809,169.600 344.380 C 169.600 343.951,169.786 343.600,170.014 343.600 C 170.242 343.600,170.757 342.832,171.160 341.894 C 171.562 340.956,172.185 339.944,172.545 339.645 C 172.905 339.347,173.200 338.764,173.200 338.351 C 173.200 337.938,173.389 337.600,173.620 337.600 C 173.852 337.600,174.321 336.925,174.663 336.100 C 175.006 335.275,175.529 334.460,175.827 334.289 C 176.124 334.118,176.492 333.308,176.645 332.489 C 176.797 331.670,177.254 330.765,177.661 330.477 C 178.067 330.190,178.400 329.539,178.400 329.031 C 178.400 328.523,178.749 327.664,179.175 327.122 C 179.602 326.580,180.082 325.613,180.243 324.972 C 180.403 324.332,180.770 323.573,181.057 323.286 C 181.344 322.999,181.780 322.007,182.027 321.082 C 182.273 320.157,182.705 319.130,182.987 318.800 C 183.268 318.470,183.624 317.501,183.778 316.646 C 183.931 315.791,184.404 314.444,184.828 313.652 C 185.253 312.860,185.600 311.577,185.600 310.802 C 185.600 309.857,185.847 309.238,186.350 308.924 C 186.875 308.596,187.187 307.756,187.387 306.128 C 187.545 304.847,187.957 303.482,188.304 303.094 C 188.660 302.696,189.014 301.387,189.115 300.094 C 189.214 298.832,189.561 297.497,189.886 297.126 C 190.211 296.755,190.700 294.829,190.973 292.846 C 191.246 290.863,191.682 288.983,191.943 288.668 C 192.204 288.354,192.523 286.590,192.653 284.748 C 192.782 282.907,193.153 280.590,193.478 279.600 C 193.803 278.610,194.243 275.280,194.456 272.200 C 194.669 269.120,195.029 266.060,195.256 265.400 C 196.524 261.719,196.471 227.952,195.191 224.000 C 194.941 223.230,194.608 219.699,194.450 216.153 C 194.237 211.395,194.000 209.457,193.542 208.753 C 193.120 208.104,192.846 206.335,192.683 203.200 C 192.551 200.670,192.161 197.548,191.817 196.262 C 191.472 194.975,191.008 191.195,190.785 187.862 C 190.562 184.528,190.206 180.159,189.994 178.154 C 189.507 173.545,189.544 167.394,190.068 166.039 C 190.289 165.467,190.614 162.943,190.789 160.428 C 191.036 156.905,191.260 155.745,191.768 155.374 C 192.166 155.083,192.526 154.042,192.677 152.746 C 192.834 151.404,193.184 150.418,193.611 150.115 C 193.986 149.848,194.409 148.903,194.551 148.015 C 194.712 147.007,195.023 146.400,195.378 146.400 C 195.690 146.400,196.047 146.082,196.170 145.694 C 196.293 145.306,197.385 143.923,198.597 142.621 C 199.809 141.319,200.800 140.125,200.800 139.966 C 200.800 139.808,201.342 139.489,202.005 139.258 C 202.668 139.027,203.317 138.559,203.448 138.219 C 203.593 137.843,204.178 137.599,204.943 137.599 C 205.634 137.598,206.830 137.193,207.600 136.699 C 209.682 135.362,223.816 135.390,227.115 136.736 C 228.278 137.211,229.921 137.600,230.766 137.600 C 231.611 137.600,232.508 137.848,232.759 138.150 C 233.010 138.453,234.018 138.925,235.000 139.200 C 235.982 139.475,236.983 139.938,237.225 140.230 C 237.467 140.522,238.444 140.878,239.397 141.020 C 240.628 141.205,241.185 141.500,241.326 142.040 C 241.455 142.532,241.879 142.800,242.530 142.800 C 243.943 142.800,244.800 143.192,244.800 143.838 C 244.800 144.173,245.427 144.491,246.389 144.645 C 247.447 144.814,248.057 145.149,248.216 145.649 C 248.347 146.062,248.807 146.400,249.240 146.400 C 249.672 146.400,250.126 146.662,250.248 146.982 C 250.447 147.500,251.681 148.413,254.169 149.883 C 254.618 150.149,255.169 150.611,255.393 150.909 C 257.017 153.073,262.709 152.384,263.568 149.919 C 264.350 147.677,263.931 142.816,262.845 141.537 C 261.963 140.498,260.477 138.073,260.213 137.241 C 260.063 136.769,259.607 136.400,259.173 136.400 C 258.655 136.400,258.400 136.124,258.400 135.563 C 258.400 135.062,258.079 134.641,257.600 134.516 C 257.160 134.401,256.800 133.999,256.800 133.623 C 256.800 133.247,256.350 132.517,255.800 132.000 C 255.250 131.483,254.800 130.816,254.800 130.518 C 254.800 130.219,254.521 129.868,254.180 129.737 C 253.840 129.606,252.985 128.981,252.280 128.346 C 249.905 126.208,249.173 125.600,248.970 125.600 C 248.859 125.600,248.063 124.880,247.200 124.000 C 246.337 123.120,245.375 122.400,245.062 122.400 C 244.748 122.400,244.197 121.950,243.837 121.400 C 243.476 120.850,242.987 120.400,242.749 120.400 C 242.510 120.400,241.781 119.950,241.127 119.400 C 240.473 118.850,239.682 118.400,239.369 118.400 C 239.056 118.400,238.440 118.040,238.000 117.600 C 237.560 117.160,236.868 116.800,236.462 116.800 C 236.056 116.800,235.402 116.445,235.009 116.010 C 234.616 115.576,233.913 115.101,233.447 114.955 C 232.981 114.809,232.171 114.355,231.646 113.945 C 231.121 113.535,230.250 113.200,229.709 113.200 C 229.169 113.200,228.269 112.840,227.709 112.400 C 227.150 111.960,226.379 111.600,225.997 111.600 C 225.615 111.600,223.924 111.150,222.239 110.600 C 220.554 110.050,218.393 109.600,217.436 109.600 C 216.480 109.600,215.001 109.309,214.149 108.953 C 212.298 108.179,200.377 107.786,197.800 108.414 M217.000 110.616 C 218.320 110.964,220.362 111.423,221.539 111.636 C 222.715 111.849,224.335 112.356,225.139 112.763 C 225.942 113.170,227.160 113.623,227.844 113.771 C 228.529 113.918,231.015 115.110,233.369 116.420 C 235.724 117.729,237.722 118.800,237.811 118.800 C 238.232 118.800,241.790 121.275,244.999 123.800 C 254.499 131.274,263.200 142.170,263.200 146.592 C 263.200 150.231,258.478 152.517,256.188 149.987 C 255.784 149.540,254.811 148.784,254.026 148.308 C 253.242 147.832,252.510 147.327,252.400 147.187 C 251.774 146.387,246.283 143.208,241.600 140.936 C 238.630 139.495,235.750 138.081,235.200 137.794 C 234.650 137.508,233.480 137.146,232.600 136.989 C 231.720 136.833,230.460 136.462,229.800 136.165 C 224.264 133.673,210.433 133.701,205.574 136.213 C 204.950 136.536,204.189 136.800,203.882 136.800 C 203.575 136.800,203.002 137.155,202.609 137.590 C 202.216 138.024,201.513 138.498,201.047 138.643 C 198.577 139.410,192.000 148.486,192.000 151.128 C 192.000 151.376,191.652 152.348,191.227 153.289 C 188.457 159.416,187.632 181.045,189.795 190.800 C 190.112 192.230,190.382 194.210,190.395 195.200 C 190.407 196.190,190.773 198.609,191.208 200.575 C 191.642 202.542,192.175 206.018,192.391 208.301 C 192.608 210.584,192.868 212.587,192.971 212.753 C 193.604 213.777,194.841 236.078,194.814 246.000 C 194.789 255.481,193.777 271.387,193.007 274.400 C 192.698 275.610,192.345 278.130,192.224 280.000 C 192.102 281.870,191.642 284.656,191.201 286.191 C 190.761 287.727,190.400 289.427,190.400 289.971 C 190.400 291.241,187.397 302.374,186.076 306.000 C 185.716 306.990,185.206 308.520,184.944 309.400 C 182.590 317.302,176.258 331.492,172.519 337.245 C 171.574 338.700,170.800 340.058,170.800 340.264 C 170.800 340.469,170.525 340.989,170.189 341.419 C 169.853 341.848,168.998 343.108,168.289 344.218 C 167.580 345.328,166.775 346.498,166.499 346.818 C 166.224 347.138,164.713 349.110,163.141 351.200 C 156.719 359.742,156.110 360.461,154.251 361.698 C 147.414 366.247,142.186 357.912,146.536 349.399 C 147.561 347.394,149.102 343.859,149.414 342.800 C 149.575 342.250,149.840 341.710,150.002 341.600 C 150.327 341.379,153.243 334.367,154.577 330.600 C 155.044 329.280,155.646 327.807,155.913 327.326 C 156.181 326.846,156.400 326.072,156.400 325.606 C 156.400 325.141,156.672 324.235,157.003 323.594 C 157.335 322.952,157.867 321.296,158.184 319.913 C 158.502 318.531,159.040 316.416,159.381 315.213 C 159.721 314.010,160.000 312.638,160.000 312.165 C 160.000 311.692,160.360 310.177,160.800 308.800 C 161.240 307.423,161.602 305.644,161.605 304.848 C 161.607 304.052,161.894 302.410,162.242 301.200 C 163.452 296.989,164.995 274.479,164.614 266.600 C 164.395 262.078,164.050 257.145,163.204 246.400 C 163.004 243.870,162.648 240.900,162.413 239.800 C 162.177 238.700,161.796 236.090,161.566 234.000 C 161.336 231.910,160.902 229.300,160.601 228.200 C 160.300 227.100,159.930 224.864,159.779 223.232 C 159.628 221.600,159.332 219.710,159.121 219.032 C 158.909 218.354,158.391 216.000,157.970 213.800 C 157.549 211.600,156.840 208.450,156.395 206.800 C 154.656 200.358,153.163 193.221,152.756 189.400 C 152.522 187.200,152.165 185.086,151.963 184.702 C 151.331 183.501,151.047 168.957,151.590 165.600 C 151.857 163.950,152.226 161.250,152.409 159.600 C 152.813 155.969,153.458 152.624,153.935 151.689 C 154.129 151.310,154.406 150.370,154.550 149.600 C 154.852 147.998,156.071 144.718,157.452 141.794 C 157.974 140.691,158.400 139.625,158.400 139.426 C 158.400 139.226,158.640 138.779,158.934 138.431 C 159.228 138.084,159.716 137.170,160.019 136.400 C 160.322 135.630,160.713 134.820,160.888 134.600 C 161.063 134.380,162.238 132.760,163.498 131.000 C 166.607 126.660,166.695 126.552,169.200 123.982 C 174.301 118.749,183.343 113.217,189.018 111.859 C 190.328 111.545,191.940 111.072,192.600 110.808 C 195.898 109.489,212.240 109.360,217.000 110.616 M206.600 145.363 C 203.413 146.910,201.200 148.748,201.200 149.846 C 201.200 149.999,200.758 150.704,200.217 151.413 C 198.902 153.137,197.600 156.653,197.600 158.481 C 197.600 163.458,201.032 165.054,205.695 162.247 C 208.919 160.305,213.573 159.306,215.387 160.167 C 216.121 160.515,216.936 160.800,217.199 160.800 C 218.706 160.800,223.600 165.898,223.600 167.468 C 223.600 167.701,223.945 168.331,224.367 168.867 C 224.789 169.404,225.259 170.553,225.412 171.421 C 225.565 172.290,225.959 173.428,226.287 173.950 C 226.615 174.473,227.120 176.183,227.408 177.750 C 227.696 179.318,228.152 181.680,228.421 183.000 C 229.301 187.324,229.153 204.350,228.200 208.400 C 227.064 213.228,226.990 234.799,228.100 237.508 C 228.485 238.448,228.800 239.598,228.800 240.064 C 228.800 240.531,229.140 241.652,229.556 242.556 C 229.972 243.460,230.630 244.965,231.017 245.900 C 231.405 246.835,231.874 247.600,232.061 247.600 C 232.247 247.600,232.400 248.026,232.400 248.546 C 232.400 249.066,232.760 249.950,233.200 250.509 C 233.640 251.069,234.000 251.706,234.000 251.927 C 234.000 254.043,247.996 266.800,250.318 266.800 C 250.467 266.800,251.491 267.237,252.594 267.771 C 260.504 271.600,278.307 273.962,281.331 271.583 C 283.233 270.087,283.070 266.794,280.987 264.629 C 280.760 264.393,280.166 263.620,279.668 262.911 C 279.169 262.202,278.230 261.309,277.581 260.925 C 276.931 260.541,276.400 260.024,276.400 259.776 C 276.400 259.527,276.017 258.981,275.548 258.562 C 275.080 258.143,274.273 257.134,273.756 256.320 C 273.238 255.505,272.019 253.985,271.047 252.942 C 270.075 251.898,269.075 250.359,268.824 249.522 C 268.573 248.685,268.220 248.000,268.039 248.000 C 267.859 248.000,267.128 246.612,266.416 244.915 C 265.704 243.219,264.881 241.644,264.587 241.415 C 264.293 241.187,263.868 239.969,263.642 238.710 C 263.416 237.450,262.969 235.913,262.648 235.293 C 262.328 234.674,261.871 232.768,261.633 231.058 C 261.396 229.348,261.005 227.582,260.765 227.134 C 260.164 226.011,260.169 208.272,260.771 206.400 C 261.900 202.886,262.071 182.933,260.986 181.178 C 260.824 180.915,260.362 179.328,259.960 177.650 C 258.696 172.370,258.183 170.823,257.527 170.304 C 257.176 170.027,256.770 169.119,256.624 168.288 C 256.478 167.456,255.918 166.126,255.380 165.332 C 254.841 164.538,254.400 163.726,254.400 163.527 C 254.400 162.458,246.397 153.392,244.415 152.216 C 244.030 151.987,242.924 151.273,241.957 150.630 C 238.832 148.548,232.936 145.695,230.821 145.242 C 229.687 144.999,228.238 144.530,227.600 144.200 C 226.679 143.724,224.766 143.602,218.320 143.607 L 210.200 143.615 206.600 145.363 M227.423 145.293 C 228.070 145.619,229.185 145.997,229.900 146.133 C 230.614 146.269,233.237 147.374,235.727 148.590 C 238.217 149.805,240.403 150.800,240.584 150.800 C 240.766 150.800,241.473 151.337,242.157 151.992 C 242.841 152.648,244.390 154.004,245.600 155.005 C 248.387 157.310,248.135 157.051,249.879 159.400 C 253.247 163.934,255.583 167.700,255.823 168.984 C 255.964 169.734,256.421 170.657,256.840 171.036 C 257.258 171.414,257.600 172.208,257.600 172.799 C 257.600 173.391,257.951 174.894,258.379 176.139 C 260.553 182.459,261.227 193.424,260.028 203.000 C 258.558 214.747,259.460 228.874,262.235 237.571 C 262.546 238.545,262.800 239.696,262.800 240.128 C 262.800 240.560,264.015 243.183,265.500 245.957 C 266.985 248.731,268.272 251.180,268.360 251.400 C 268.447 251.620,268.942 252.309,269.460 252.931 C 269.977 253.553,270.400 254.320,270.400 254.637 C 270.400 254.953,270.958 255.551,271.640 255.966 C 272.322 256.381,273.237 257.306,273.673 258.023 C 274.109 258.740,275.247 260.153,276.202 261.163 C 280.564 265.776,282.212 268.952,280.853 270.124 C 279.086 271.647,275.120 272.003,271.000 271.008 C 269.680 270.689,267.700 270.419,266.600 270.408 C 265.500 270.397,263.520 270.112,262.200 269.776 C 260.880 269.439,259.100 268.986,258.245 268.768 C 257.389 268.550,256.240 268.018,255.691 267.586 C 255.142 267.154,254.486 266.800,254.235 266.800 C 253.281 266.800,248.117 264.050,246.177 262.509 C 245.064 261.626,243.804 260.791,243.377 260.654 C 242.949 260.517,242.240 259.854,241.800 259.182 C 241.360 258.509,240.235 257.326,239.300 256.553 C 238.365 255.779,237.600 254.961,237.600 254.735 C 237.600 254.508,236.903 253.531,236.052 252.564 C 233.682 249.872,230.731 243.446,229.822 239.000 C 229.552 237.680,229.077 235.880,228.766 235.000 C 228.017 232.883,227.940 214.436,228.677 213.549 C 230.373 211.505,230.350 184.670,228.647 178.400 C 228.080 176.310,227.612 174.002,227.607 173.271 C 227.603 172.540,227.167 171.190,226.638 170.271 C 226.109 169.352,225.302 167.889,224.846 167.021 C 222.541 162.635,216.929 158.400,213.422 158.400 C 211.992 158.400,205.938 160.421,204.976 161.220 C 203.820 162.179,200.001 162.350,199.527 161.464 C 196.725 156.227,203.356 146.890,211.400 144.746 C 213.492 144.188,226.083 144.618,227.423 145.293 " stroke="none" fill="#c9dade" fill-rule="evenodd"></path></g></svg>