<?xml version="1.0" encoding="UTF-8"?>
<svg xmlns="http://www.w3.org/2000/svg" xmlns:xlink="http://www.w3.org/1999/xlink" id="svg" width="300px" height="117px" viewBox="0 59 400 156">
  <g id="svgg">
    <path id="path0" d="M0.000 133.333 L 0.000 266.667 200.000 266.667 L 400.000 266.667 400.000 133.333 L 400.000 0.000 200.000 0.000 L 0.000 0.000 0.000 133.333 M246.570 73.811 C 252.387 76.813,254.041 86.696,249.797 93.087 C 242.581 103.954,229.918 97.687,231.976 84.267 C 233.190 76.345,240.849 70.858,246.570 73.811 M280.662 79.343 C 289.500 83.814,288.018 97.935,278.555 99.419 C 269.043 100.911,263.275 87.923,270.346 80.933 C 273.020 78.290,277.283 77.633,280.662 79.343 M43.255 92.733 C 43.477 92.990,43.989 94.100,44.392 95.200 C 45.200 97.403,47.981 104.765,49.580 108.933 C 50.142 110.400,50.931 112.500,51.334 113.600 C 51.736 114.700,52.580 116.920,53.209 118.533 C 53.838 120.147,54.612 122.187,54.930 123.067 C 55.247 123.947,55.790 125.387,56.137 126.267 C 56.484 127.147,58.579 132.667,60.793 138.533 C 65.146 150.071,66.913 154.728,68.711 159.408 C 70.798 164.842,71.292 164.533,60.533 164.533 C 50.553 164.533,51.200 164.710,51.200 161.979 C 51.200 159.714,51.338 159.549,53.436 159.303 C 56.953 158.889,56.926 158.236,52.964 147.837 C 52.287 146.061,51.733 144.522,51.733 144.416 C 51.733 144.055,50.320 140.667,50.112 140.529 C 49.955 140.425,28.053 140.411,26.501 140.514 C 26.337 140.524,26.048 141.103,25.860 141.800 C 25.671 142.497,25.436 143.187,25.337 143.333 C 25.238 143.480,24.889 144.380,24.562 145.333 C 24.235 146.287,23.861 147.307,23.732 147.600 C 23.602 147.893,22.634 150.473,21.580 153.333 C 17.974 163.123,17.585 164.111,17.259 164.318 C 17.080 164.432,14.812 164.527,12.219 164.529 C 6.627 164.534,6.667 164.552,6.667 162.032 C 6.667 160.006,6.982 159.536,8.533 159.248 C 11.075 158.775,13.217 157.112,14.671 154.481 C 15.460 153.051,18.411 145.951,19.856 142.000 C 20.178 141.120,20.649 139.920,20.903 139.333 C 21.157 138.747,22.032 136.527,22.847 134.400 C 23.662 132.273,24.555 130.030,24.831 129.415 C 25.107 128.799,25.334 128.199,25.334 128.081 C 25.335 127.963,25.707 126.967,26.161 125.867 C 26.615 124.767,27.207 123.267,27.476 122.533 C 28.538 119.638,29.882 116.106,30.115 115.600 C 30.250 115.307,30.857 113.747,31.465 112.133 C 32.072 110.520,33.276 107.400,34.140 105.200 C 37.009 97.891,38.667 93.574,38.667 93.407 C 38.667 92.287,42.394 91.740,43.255 92.733 M264.533 96.954 C 272.613 98.808,281.912 105.490,284.756 111.484 C 286.286 114.709,283.890 117.177,281.325 115.018 C 275.706 110.290,266.217 107.340,260.800 108.637 C 253.537 110.375,250.449 120.056,252.667 134.133 C 254.242 144.124,254.630 147.781,254.847 154.667 C 255.265 167.907,253.254 179.413,248.368 191.733 C 246.688 195.970,242.387 203.176,239.414 206.736 C 239.076 207.140,238.440 207.932,238.000 208.494 C 234.006 213.601,229.824 209.550,232.672 203.333 C 234.374 199.617,234.811 198.591,235.739 196.133 C 237.747 190.817,238.806 186.449,239.780 179.467 C 240.258 176.040,240.257 161.913,239.779 158.133 C 238.702 149.625,238.083 146.164,236.414 139.333 C 234.074 129.758,233.855 123.403,235.606 115.867 C 238.786 102.178,251.390 93.937,264.533 96.954 M123.867 101.106 C 124.381 101.596,124.403 102.013,124.475 112.807 C 124.516 118.963,124.619 124.000,124.703 124.000 C 124.788 124.000,125.299 123.650,125.840 123.221 C 136.273 114.958,150.885 121.650,154.036 136.133 C 158.383 156.117,141.650 171.525,124.239 163.570 C 121.254 162.207,121.255 162.207,120.716 163.029 C 119.811 164.410,119.533 164.533,117.330 164.533 C 115.944 164.533,115.158 164.420,115.016 164.200 C 114.897 164.017,114.800 151.687,114.800 136.800 L 114.800 109.733 114.164 108.441 C 113.423 106.936,112.558 106.334,110.067 105.585 L 108.267 105.044 108.267 103.465 C 108.267 101.357,108.152 101.398,115.520 100.913 C 118.928 100.688,121.769 100.454,121.832 100.391 C 122.062 100.160,123.348 100.612,123.867 101.106 M81.314 101.236 C 81.853 101.921,81.867 102.214,81.867 112.969 C 81.867 122.597,81.918 124.000,82.267 124.000 C 82.487 124.000,82.667 123.900,82.667 123.778 C 82.667 122.392,89.556 119.733,93.148 119.733 C 111.126 119.733,118.930 146.530,104.885 160.035 C 98.197 166.466,90.042 167.576,80.843 163.308 C 78.453 162.199,78.568 162.199,77.883 163.307 C 77.575 163.806,77.135 164.286,76.906 164.374 C 76.103 164.682,72.574 164.547,72.350 164.200 C 72.232 164.017,72.135 151.687,72.135 136.800 L 72.133 109.733 71.497 108.441 C 70.780 106.985,69.882 106.333,67.733 105.709 C 65.746 105.132,65.600 104.967,65.600 103.295 C 65.600 101.418,65.583 101.424,71.867 100.972 C 80.032 100.383,80.657 100.401,81.314 101.236 M338.647 101.236 C 339.198 101.937,339.200 102.019,339.200 129.649 C 339.200 162.146,338.765 158.574,342.884 159.874 C 344.732 160.457,345.520 162.651,344.420 164.149 C 343.977 164.753,325.067 164.820,324.344 164.221 C 323.247 163.310,324.154 160.000,325.501 160.000 C 326.697 160.000,328.491 159.422,328.984 158.878 C 329.699 158.088,329.738 110.228,329.025 108.928 C 328.246 107.508,327.240 106.746,325.336 106.134 C 323.055 105.401,322.883 105.203,322.985 103.424 C 323.095 101.506,323.314 101.427,329.754 100.978 C 337.947 100.406,337.995 100.407,338.647 101.236 M382.667 101.067 C 383.193 101.593,383.200 101.956,383.200 128.120 C 383.200 146.863,383.289 155.055,383.502 156.054 C 383.903 157.931,385.094 159.096,386.869 159.346 C 389.039 159.652,389.333 159.985,389.333 162.130 C 389.333 164.620,389.609 164.533,381.647 164.533 C 374.050 164.533,373.956 164.509,373.681 162.464 C 373.501 161.119,373.511 161.122,372.381 162.114 C 362.615 170.689,346.995 163.566,343.828 149.093 C 342.871 144.718,343.436 135.530,344.772 133.740 C 344.884 133.589,345.243 132.828,345.570 132.047 C 349.947 121.599,360.675 117.462,373.000 121.467 L 373.600 121.662 373.599 116.231 C 373.596 108.460,373.134 107.410,369.156 106.135 L 367.067 105.466 367.067 103.619 C 367.067 101.342,366.744 101.469,373.575 101.061 C 376.302 100.899,378.653 100.723,378.800 100.670 C 379.769 100.325,382.172 100.572,382.667 101.067 M37.776 111.267 C 37.575 111.743,37.166 112.733,36.867 113.467 C 36.568 114.200,35.890 115.841,35.361 117.113 C 34.833 118.385,34.400 119.545,34.400 119.690 C 34.400 119.836,33.990 120.895,33.488 122.044 C 32.601 124.079,30.320 129.723,29.305 132.396 C 29.027 133.127,28.800 133.877,28.800 134.063 C 28.800 134.328,30.821 134.400,38.298 134.400 C 47.219 134.400,47.787 134.372,47.655 133.933 C 47.578 133.677,46.956 132.027,46.273 130.267 C 45.590 128.507,44.846 126.527,44.620 125.867 C 44.394 125.207,44.116 124.547,44.002 124.400 C 43.888 124.253,43.310 122.813,42.718 121.200 C 42.125 119.587,41.164 117.067,40.583 115.600 C 40.002 114.133,39.317 112.363,39.060 111.667 C 38.511 110.173,38.268 110.097,37.776 111.267 M270.267 112.932 C 281.093 116.594,285.410 125.582,283.783 141.067 C 282.832 150.117,285.015 157.502,290.471 163.690 C 294.925 168.740,294.551 170.055,288.797 169.579 C 273.521 168.314,266.981 158.286,269.592 140.133 C 271.494 126.908,266.072 116.170,259.467 120.083 C 254.539 123.002,254.605 116.326,259.535 113.166 C 261.728 111.761,266.498 111.657,270.267 112.932 M182.667 120.173 C 188.874 121.469,193.087 125.625,194.926 132.267 C 195.609 134.731,195.973 140.653,195.497 141.543 L 195.184 142.128 181.659 142.198 L 168.133 142.267 168.052 143.684 C 167.417 154.773,176.408 161.981,186.249 158.273 C 189.439 157.071,189.600 157.157,189.600 160.063 C 189.600 163.494,185.284 165.609,178.316 165.594 C 167.711 165.572,160.392 159.123,158.372 148.021 C 155.193 130.546,167.081 116.919,182.667 120.173 M313.333 120.222 C 321.081 122.119,325.261 128.057,325.792 137.920 C 325.920 140.310,325.873 140.884,325.501 141.451 L 325.058 142.128 311.662 142.198 L 298.267 142.267 298.322 144.603 C 298.534 153.645,303.261 159.071,310.920 159.063 C 314.362 159.060,314.326 159.067,318.063 157.566 C 319.369 157.041,319.611 157.453,319.543 160.077 C 319.478 162.582,319.532 162.511,316.659 163.898 C 309.509 167.350,299.314 165.446,293.985 159.664 C 291.628 157.106,290.359 154.870,289.255 151.333 C 284.979 137.632,291.573 122.895,303.200 120.167 C 304.153 119.944,305.173 119.700,305.467 119.626 C 306.490 119.368,311.349 119.736,313.333 120.222 M204.092 120.754 C 204.483 121.186,205.727 124.078,207.611 128.933 C 208.791 131.974,209.779 134.408,211.939 139.600 C 212.367 140.627,213.474 143.302,214.399 145.546 C 215.325 147.789,216.176 149.529,216.290 149.412 C 216.405 149.296,217.474 146.860,218.666 144.000 C 219.858 141.140,220.940 138.560,221.069 138.267 C 222.301 135.481,225.067 128.004,225.067 127.460 C 225.067 126.727,224.078 126.045,221.778 125.192 L 219.600 124.385 219.522 122.634 C 219.411 120.149,219.118 120.245,226.567 120.328 L 232.933 120.400 233.013 121.483 C 233.105 122.735,233.017 122.972,227.863 135.333 C 225.845 140.173,223.905 144.853,223.552 145.733 C 223.198 146.613,222.681 147.873,222.402 148.533 C 222.123 149.193,221.038 151.833,219.991 154.400 C 213.198 171.055,209.383 177.807,204.979 180.971 C 199.178 185.138,190.933 182.605,190.933 176.656 C 190.933 170.750,197.417 169.126,201.411 174.031 C 202.113 174.894,202.831 175.600,203.006 175.600 C 203.565 175.600,206.649 171.169,208.389 167.867 C 211.068 162.782,211.046 163.629,208.655 157.733 C 207.525 154.947,206.258 151.796,205.840 150.732 C 205.421 149.667,204.836 148.264,204.539 147.613 C 204.243 146.962,204.000 146.357,204.000 146.268 C 204.000 146.092,202.143 141.620,201.315 139.803 C 201.032 139.181,200.800 138.604,200.800 138.519 C 200.800 138.435,199.975 136.424,198.968 134.050 C 197.960 131.676,197.044 129.433,196.933 129.067 C 196.822 128.700,196.512 127.920,196.244 127.333 C 195.977 126.747,195.506 125.616,195.199 124.821 C 194.891 124.027,194.398 122.848,194.104 122.201 C 193.248 120.324,193.392 120.267,198.925 120.267 C 203.163 120.267,203.696 120.317,204.092 120.754 M175.465 124.782 C 171.589 125.962,167.551 132.172,168.052 136.184 L 168.133 136.832 176.785 136.809 C 181.543 136.796,185.485 136.737,185.545 136.677 C 185.764 136.458,185.035 131.818,184.486 129.935 C 183.283 125.806,179.397 123.586,175.465 124.782 M305.036 124.888 C 301.461 126.214,297.133 133.541,298.232 136.406 C 298.511 137.134,315.733 136.981,315.733 136.251 C 315.733 127.982,310.806 122.748,305.036 124.888 M362.933 124.766 C 356.952 126.749,353.898 132.806,353.876 142.728 C 353.851 153.572,357.734 159.333,365.067 159.333 C 368.673 159.333,369.737 158.944,372.143 156.745 L 373.600 155.413 373.600 143.101 L 373.600 130.788 372.611 129.117 C 370.662 125.821,366.031 123.739,362.933 124.766 M87.006 126.527 C 85.525 126.944,84.147 127.735,82.739 128.975 L 81.879 129.733 81.842 142.133 L 81.804 154.533 82.562 155.867 C 87.464 164.493,98.036 161.726,100.520 151.166 C 104.129 135.820,97.423 123.594,87.006 126.527 M129.969 126.372 C 128.610 126.720,126.834 127.672,125.647 128.689 L 124.533 129.642 124.533 142.030 L 124.533 154.418 125.223 155.779 C 127.960 161.179,134.931 162.579,139.157 158.577 C 145.726 152.355,145.667 134.080,139.061 128.295 C 137.004 126.494,132.888 125.623,129.969 126.372 " stroke="none" fill="#fdfdfd" fill-rule="evenodd"></path>
    <path id="path1" d="M241.263 74.143 C 231.839 76.490,229.360 92.720,237.781 96.939 C 246.034 101.074,254.624 88.075,249.857 78.667 C 248.138 75.276,244.469 73.345,241.263 74.143 M39.812 93.400 C 39.673 93.583,39.341 94.333,39.076 95.067 C 38.811 95.800,37.729 98.620,36.673 101.333 C 33.727 108.903,33.102 110.524,31.687 114.267 C 30.966 116.173,30.142 118.242,29.855 118.864 C 29.568 119.485,29.332 120.085,29.330 120.197 C 29.328 120.309,28.716 121.960,27.969 123.867 C 27.222 125.773,25.852 129.313,24.924 131.733 C 23.996 134.153,22.767 137.333,22.192 138.800 C 21.617 140.267,20.517 143.087,19.746 145.067 C 15.312 156.463,13.722 158.816,9.760 159.848 C 8.935 160.063,8.142 160.312,7.997 160.402 C 7.591 160.653,7.668 163.192,8.087 163.352 C 9.052 163.723,16.310 163.593,16.644 163.200 C 17.095 162.667,18.270 159.596,23.772 144.573 C 25.149 140.815,25.583 139.902,26.084 139.707 C 26.884 139.396,49.638 139.392,50.449 139.703 C 50.906 139.878,51.265 140.484,51.831 142.037 C 52.251 143.190,52.748 144.493,52.935 144.933 C 53.122 145.373,54.128 148.082,55.171 150.954 C 58.057 158.900,57.942 159.319,52.587 160.424 C 52.023 160.540,51.980 160.670,52.054 162.043 L 52.133 163.536 59.867 163.645 C 70.244 163.792,69.479 164.271,67.434 158.913 C 65.506 153.862,64.856 152.133,64.085 150.000 C 63.714 148.973,63.253 147.773,63.060 147.333 C 62.868 146.893,62.052 144.733,61.247 142.533 C 59.880 138.796,57.049 131.298,53.342 121.600 C 52.473 119.327,51.528 116.807,51.241 116.000 C 50.715 114.519,49.906 112.369,48.131 107.733 C 46.332 103.032,45.552 100.940,45.051 99.467 C 44.489 97.813,42.897 93.907,42.578 93.400 C 42.463 93.217,41.850 93.067,41.217 93.067 C 40.584 93.067,39.951 93.217,39.812 93.400 M256.133 97.509 C 239.921 99.456,231.957 116.307,237.078 137.829 C 237.519 139.683,238.050 141.920,238.257 142.800 C 238.809 145.140,240.035 152.237,240.514 155.867 C 242.628 171.858,239.865 193.017,234.560 201.467 C 231.648 206.105,232.186 211.163,235.414 209.494 C 236.651 208.854,240.798 203.786,242.419 200.933 C 242.752 200.347,243.173 199.687,243.354 199.467 C 243.535 199.247,244.219 198.047,244.874 196.800 C 253.236 180.876,255.805 160.485,252.264 138.133 C 249.807 122.630,251.024 114.282,256.384 109.853 C 261.353 105.746,271.388 107.128,280.170 113.129 C 284.546 116.119,286.171 114.336,282.922 110.107 C 276.135 101.274,265.690 96.362,256.133 97.509 M78.800 101.485 C 78.507 101.528,75.867 101.698,72.933 101.863 C 66.057 102.248,66.400 102.164,66.400 103.460 C 66.400 104.462,66.445 104.518,67.400 104.695 C 69.936 105.166,71.626 106.393,72.564 108.444 C 73.074 109.560,73.255 126.596,73.075 156.361 C 73.027 164.177,72.874 163.535,74.804 163.624 C 76.247 163.691,76.293 163.670,77.260 162.513 C 78.426 161.119,78.503 161.109,80.474 162.102 C 99.061 171.463,116.270 154.480,109.625 133.333 C 106.014 121.842,91.966 116.789,83.733 124.020 C 80.626 126.749,80.800 127.365,80.800 113.662 C 80.800 100.469,80.916 101.172,78.800 101.485 M118.000 101.645 C 115.947 101.773,113.127 101.966,111.733 102.073 L 109.200 102.267 109.115 103.306 C 109.022 104.443,109.316 104.786,110.400 104.802 C 111.407 104.817,113.096 105.679,114.060 106.670 C 115.816 108.476,115.748 107.242,115.726 136.687 L 115.707 163.333 117.520 163.398 L 119.333 163.462 120.064 162.398 C 120.936 161.128,121.164 161.106,123.141 162.102 C 130.572 165.845,137.957 165.702,144.036 161.698 C 152.184 156.332,155.737 144.723,152.473 134.133 C 148.450 121.083,134.853 116.449,125.308 124.875 C 123.468 126.499,123.467 126.490,123.467 113.683 C 123.467 101.869,123.414 101.301,122.324 101.372 C 121.999 101.393,120.053 101.516,118.000 101.645 M335.496 101.530 C 334.853 101.588,332.038 101.777,329.240 101.950 L 324.155 102.267 323.969 103.176 C 323.773 104.134,323.903 104.800,324.285 104.800 C 326.044 104.800,329.130 106.968,329.978 108.800 C 330.737 110.439,331.004 155.915,330.267 158.131 C 329.745 159.704,328.718 160.482,326.655 160.865 C 324.928 161.187,324.672 161.491,325.023 162.800 L 325.238 163.600 334.419 163.600 L 343.600 163.600 343.600 162.400 C 343.600 161.215,343.585 161.195,342.400 160.800 C 340.699 160.233,339.319 159.362,338.753 158.499 C 338.291 157.795,338.263 156.343,338.198 129.878 C 338.124 100.084,338.172 101.178,336.949 101.380 C 336.794 101.406,336.140 101.473,335.496 101.530 M374.667 101.851 L 368.133 102.267 368.133 103.583 L 368.133 104.898 369.333 105.206 C 373.875 106.371,374.714 108.218,374.605 116.820 C 374.520 123.552,374.769 123.204,371.023 121.840 C 354.887 115.962,340.280 131.815,345.102 149.972 C 348.724 163.613,362.512 169.234,372.282 161.054 C 373.987 159.627,374.507 159.718,374.617 161.462 C 374.749 163.546,374.465 163.467,381.780 163.467 L 388.295 163.467 388.214 162.101 L 388.133 160.735 386.533 160.231 C 384.924 159.725,384.428 159.397,383.200 158.032 L 382.533 157.290 382.400 129.678 C 382.268 102.419,382.260 102.061,381.733 101.750 C 381.320 101.506,379.725 101.529,374.667 101.851 M38.859 108.867 C 39.124 109.209,41.333 114.772,41.333 115.096 C 41.333 115.195,41.743 116.249,42.244 117.438 C 42.745 118.627,43.717 121.100,44.403 122.933 C 45.089 124.767,45.870 126.807,46.140 127.467 C 48.938 134.326,49.062 134.774,48.284 135.191 C 47.735 135.484,29.413 135.588,28.352 135.303 C 27.337 135.031,27.439 134.509,29.501 129.400 C 30.611 126.650,31.855 123.500,32.266 122.400 C 32.678 121.300,33.578 119.080,34.267 117.467 C 34.956 115.853,35.639 114.121,35.786 113.617 C 35.932 113.114,36.340 112.071,36.693 111.301 C 37.045 110.531,37.333 109.782,37.333 109.636 C 37.333 108.882,38.440 108.324,38.859 108.867 M175.200 120.791 C 163.229 122.047,155.872 136.565,159.991 150.800 C 161.415 155.718,163.293 158.503,167.067 161.290 C 168.375 162.257,168.793 162.490,170.667 163.302 C 177.177 166.122,188.261 164.413,188.482 160.555 C 188.584 158.778,188.365 158.541,187.110 159.066 C 176.886 163.338,168.559 157.446,167.211 144.987 C 166.770 140.913,165.214 141.334,180.743 141.329 C 188.034 141.327,194.169 141.218,194.375 141.088 C 194.679 140.895,194.720 140.241,194.590 137.661 C 194.193 129.769,191.356 124.664,186.049 122.292 C 183.499 121.152,183.165 121.059,180.711 120.800 C 178.057 120.520,177.782 120.520,175.200 120.791 M304.291 120.816 C 294.619 122.549,287.882 133.275,289.054 145.076 C 290.338 158.003,297.576 164.893,309.418 164.462 C 315.834 164.228,318.853 162.712,318.619 159.841 C 318.519 158.620,318.428 158.609,315.600 159.453 C 305.519 162.464,297.924 156.205,297.176 144.270 C 296.964 140.882,295.494 141.212,311.190 141.122 L 324.800 141.044 324.800 139.248 C 324.800 126.081,316.506 118.627,304.291 120.816 M194.933 121.324 C 194.933 121.466,195.583 123.176,196.376 125.124 C 198.128 129.425,200.475 135.137,200.790 135.867 C 200.917 136.160,201.466 137.480,202.009 138.800 C 202.553 140.120,203.154 141.560,203.346 142.000 C 203.537 142.440,204.007 143.580,204.390 144.533 C 204.773 145.487,206.542 149.867,208.322 154.267 C 211.994 163.348,211.946 163.057,210.324 166.283 C 206.701 173.493,202.777 178.329,202.062 176.466 C 201.259 174.372,198.062 171.956,196.096 171.956 C 190.997 171.956,190.318 179.019,195.188 181.397 C 199.643 183.572,205.236 181.025,209.116 175.053 C 210.810 172.445,213.867 166.791,213.867 166.264 C 213.867 166.197,214.236 165.390,214.686 164.471 C 215.137 163.552,215.850 161.960,216.270 160.933 C 216.689 159.907,217.464 158.047,217.991 156.800 C 218.517 155.553,219.495 153.153,220.164 151.467 C 220.834 149.780,221.723 147.620,222.141 146.667 C 222.559 145.713,223.814 142.713,224.929 140.000 C 226.045 137.287,227.247 134.407,227.600 133.600 C 229.852 128.452,232.065 122.767,232.096 122.046 L 232.133 121.200 226.333 121.128 L 220.533 121.056 220.493 122.128 C 220.471 122.718,220.441 123.342,220.427 123.516 C 220.412 123.690,220.953 123.973,221.629 124.145 C 226.555 125.402,226.804 126.546,223.769 134.000 C 223.471 134.733,222.749 136.533,222.166 138.000 C 221.583 139.467,220.548 141.987,219.866 143.600 C 219.185 145.213,218.469 146.962,218.276 147.486 C 216.474 152.363,215.965 152.329,213.997 147.200 C 213.293 145.367,212.450 143.267,212.123 142.533 C 211.262 140.599,207.760 132.016,204.209 123.133 L 203.383 121.067 199.158 121.067 C 196.617 121.067,194.933 121.169,194.933 121.324 M310.984 124.144 C 314.081 125.205,316.068 128.963,316.438 134.458 C 316.689 138.186,317.595 137.867,306.777 137.867 C 296.072 137.867,296.823 138.103,297.322 134.888 C 298.440 127.685,302.839 123.145,308.267 123.594 C 309.073 123.661,310.296 123.908,310.984 124.144 M181.657 124.608 C 184.510 126.280,185.927 129.327,186.539 135.108 C 186.853 138.072,187.580 137.867,176.782 137.867 C 165.929 137.867,166.786 138.155,167.351 134.688 C 168.266 129.080,170.858 125.373,174.753 124.102 C 176.642 123.485,180.185 123.745,181.657 124.608 M369.288 124.698 C 371.107 125.588,372.876 127.391,373.892 129.392 L 374.667 130.918 374.667 143.183 L 374.667 155.448 373.869 156.356 C 366.544 164.699,355.440 160.312,353.150 148.171 C 350.298 133.053,359.376 119.849,369.288 124.698 M92.478 125.344 C 98.926 126.831,102.219 132.854,102.242 143.200 C 102.257 149.621,101.958 151.202,99.922 155.467 C 96.038 163.605,85.446 163.966,81.569 156.091 L 80.933 154.800 80.859 142.298 C 80.774 128.052,80.573 129.293,83.278 127.363 C 86.193 125.283,89.278 124.606,92.478 125.344 M135.254 125.362 C 148.052 128.036,148.596 158.116,135.907 161.495 C 131.186 162.752,126.501 160.523,124.167 155.909 L 123.467 154.526 123.467 141.984 L 123.467 129.442 124.467 128.496 C 127.530 125.600,131.236 124.523,135.254 125.362 " stroke="none" fill="#012c5f" fill-rule="evenodd"></path>
    <path id="path2" d="M239.309 74.402 C 228.687 79.811,230.507 98.870,241.569 98.073 C 250.447 97.433,255.089 83.337,248.785 76.157 C 246.549 73.610,242.382 72.838,239.309 74.402 M245.824 74.678 C 252.166 77.476,253.091 88.561,247.479 94.495 C 241.206 101.128,232.686 96.923,232.696 87.200 C 232.705 78.320,239.465 71.872,245.824 74.678 M39.569 92.998 C 39.406 93.109,38.280 95.780,37.068 98.933 C 35.856 102.087,34.588 105.387,34.250 106.267 C 31.084 114.507,27.311 124.265,25.279 129.467 C 24.706 130.933,24.018 132.733,23.750 133.467 C 22.516 136.837,16.402 152.051,15.659 153.600 C 14.049 156.955,11.978 158.832,9.027 159.610 C 7.376 160.046,7.209 160.266,7.204 162.013 C 7.198 163.993,7.217 164.000,12.314 164.000 C 16.712 164.000,16.795 163.989,17.197 163.375 C 17.544 162.846,19.561 157.636,20.259 155.467 C 20.700 154.095,25.621 140.917,25.835 140.533 C 26.028 140.187,27.694 140.133,38.292 140.133 L 50.526 140.133 50.884 140.880 C 51.081 141.290,51.526 142.430,51.874 143.413 C 52.221 144.396,53.060 146.700,53.738 148.533 C 57.029 157.438,57.086 157.701,55.963 158.825 C 55.474 159.313,54.857 159.559,53.735 159.711 C 51.909 159.959,51.467 160.411,51.467 162.029 C 51.467 164.151,50.779 164.000,60.437 164.000 C 70.906 164.000,70.119 164.546,67.937 158.800 C 67.436 157.480,65.680 152.824,64.035 148.454 C 62.389 144.083,60.934 140.243,60.800 139.920 C 60.456 139.090,57.592 131.512,55.186 125.067 C 54.775 123.967,53.881 121.627,53.198 119.867 C 52.515 118.107,51.796 116.187,51.600 115.600 C 51.404 115.013,50.388 112.313,49.341 109.600 C 48.295 106.887,47.089 103.707,46.662 102.533 C 46.235 101.360,45.240 98.720,44.450 96.667 L 43.016 92.933 41.441 92.864 C 40.575 92.826,39.733 92.886,39.569 92.998 M42.578 93.400 C 42.897 93.907,44.489 97.813,45.051 99.467 C 45.552 100.940,46.332 103.032,48.131 107.733 C 49.906 112.369,50.715 114.519,51.241 116.000 C 51.528 116.807,52.473 119.327,53.342 121.600 C 57.049 131.298,59.880 138.796,61.247 142.533 C 62.052 144.733,62.868 146.893,63.060 147.333 C 63.253 147.773,63.714 148.973,64.085 150.000 C 64.856 152.133,65.506 153.862,67.434 158.913 C 69.479 164.271,70.244 163.792,59.867 163.645 L 52.133 163.536 52.054 162.043 C 51.980 160.670,52.023 160.540,52.587 160.424 C 57.942 159.319,58.057 158.900,55.171 150.954 C 54.128 148.082,53.122 145.373,52.935 144.933 C 52.748 144.493,52.251 143.190,51.831 142.037 C 51.265 140.484,50.906 139.878,50.449 139.703 C 49.638 139.392,26.884 139.396,26.084 139.707 C 25.583 139.902,25.149 140.815,23.772 144.573 C 18.270 159.596,17.095 162.667,16.644 163.200 C 16.310 163.593,9.052 163.723,8.087 163.352 C 7.668 163.192,7.591 160.653,7.997 160.402 C 8.142 160.312,8.935 160.063,9.760 159.848 C 13.722 158.816,15.312 156.463,19.746 145.067 C 20.517 143.087,21.617 140.267,22.192 138.800 C 22.767 137.333,23.996 134.153,24.924 131.733 C 25.852 129.313,27.222 125.773,27.969 123.867 C 28.716 121.960,29.328 120.309,29.330 120.197 C 29.332 120.085,29.568 119.485,29.855 118.864 C 30.142 118.242,30.966 116.173,31.687 114.267 C 33.102 110.524,33.727 108.903,36.673 101.333 C 37.729 98.620,38.811 95.800,39.076 95.067 C 39.744 93.220,39.908 93.067,41.217 93.067 C 41.850 93.067,42.463 93.217,42.578 93.400 M254.933 97.212 C 239.215 100.020,231.381 117.218,236.537 137.600 C 237.230 140.339,238.659 147.012,238.936 148.800 C 240.426 158.431,240.800 162.558,240.795 169.333 C 240.786 182.174,238.798 191.130,233.287 203.167 C 230.465 209.330,233.590 212.938,237.635 208.187 C 252.003 191.309,257.587 165.074,252.687 137.467 C 248.225 112.336,257.266 101.796,275.467 110.906 C 278.176 112.262,278.529 112.474,280.520 113.933 C 284.436 116.804,286.285 114.597,283.508 110.368 C 277.388 101.046,265.112 95.394,254.933 97.212 M262.980 97.725 C 270.517 98.862,277.716 103.331,282.922 110.107 C 286.171 114.336,284.546 116.119,280.170 113.129 C 271.388 107.128,261.353 105.746,256.384 109.853 C 251.024 114.282,249.807 122.630,252.264 138.133 C 255.805 160.485,253.236 180.876,244.874 196.800 C 244.219 198.047,243.535 199.247,243.354 199.467 C 243.173 199.687,242.752 200.347,242.419 200.933 C 240.798 203.786,236.651 208.854,235.414 209.494 C 232.186 211.163,231.648 206.105,234.560 201.467 C 239.865 193.017,242.628 171.858,240.514 155.867 C 240.035 152.237,238.809 145.140,238.257 142.800 C 238.050 141.920,237.519 139.683,237.078 137.829 C 231.155 112.937,242.932 94.703,262.980 97.725 M120.800 101.009 C 110.185 101.556,108.530 101.865,108.537 103.299 C 108.543 104.517,108.768 104.725,110.731 105.332 C 112.869 105.992,114.024 106.904,114.774 108.525 C 115.330 109.727,115.333 109.875,115.333 136.800 L 115.333 163.867 117.315 163.946 L 119.297 164.025 120.276 162.889 L 121.255 161.752 123.105 162.604 C 140.698 170.714,156.807 157.848,153.847 138.051 C 151.569 122.819,137.225 115.193,126.400 123.457 C 124.637 124.803,124.012 125.064,123.985 124.467 C 123.977 124.283,123.983 119.267,123.998 113.319 C 124.033 100.131,124.216 100.833,120.800 101.009 M72.400 101.375 C 70.640 101.503,68.540 101.697,67.733 101.805 L 66.267 102.001 66.187 103.371 L 66.108 104.740 67.969 105.306 C 70.186 105.979,71.209 106.774,72.046 108.473 L 72.667 109.733 72.667 136.800 L 72.667 163.867 74.667 163.947 L 76.667 164.027 77.636 162.890 L 78.606 161.754 80.703 162.718 C 90.593 167.265,99.363 165.801,105.739 158.538 C 115.273 147.679,112.572 127.928,100.738 121.969 C 95.114 119.137,88.050 119.863,83.337 123.758 C 81.381 125.373,81.482 125.906,81.333 113.101 C 81.219 103.250,81.142 101.544,80.800 101.328 C 80.329 101.030,76.877 101.049,72.400 101.375 M328.933 101.500 C 323.095 101.949,323.467 101.818,323.467 103.426 C 323.467 104.847,323.710 105.188,324.935 105.483 C 327.035 105.990,328.581 107.085,329.428 108.667 C 330.138 109.991,330.491 155.940,329.807 158.015 C 329.387 159.289,328.199 160.137,326.474 160.394 C 324.778 160.646,324.533 160.901,324.533 162.417 C 324.533 164.097,323.704 163.948,334.170 164.149 C 344.506 164.347,344.271 164.387,344.263 162.448 C 344.257 161.036,343.995 160.774,341.827 160.015 C 340.296 159.478,339.753 159.140,339.275 158.427 L 338.667 157.521 338.667 129.713 C 338.667 104.788,338.623 101.861,338.248 101.486 C 337.734 100.972,335.769 100.975,328.933 101.500 M374.667 101.373 C 372.833 101.500,370.493 101.693,369.467 101.802 L 367.600 102.000 367.520 103.533 C 367.431 105.231,367.413 105.211,369.758 105.838 C 373.447 106.824,374.000 108.131,374.000 115.867 L 374.000 122.000 373.333 121.955 C 372.967 121.931,371.647 121.579,370.400 121.174 C 363.401 118.902,354.465 121.152,349.833 126.353 C 343.491 133.477,341.916 144.357,345.879 153.672 C 350.629 164.835,362.873 168.681,371.918 161.851 C 373.729 160.484,374.133 160.487,374.133 161.867 C 374.133 163.957,374.285 164.000,381.578 164.000 C 389.218 164.000,388.800 164.108,388.800 162.137 C 388.800 160.381,388.607 160.138,387.006 159.874 C 385.646 159.650,384.346 158.817,383.579 157.679 C 382.714 156.395,382.646 154.091,382.676 126.700 C 382.697 107.819,382.627 101.740,382.386 101.449 C 382.025 101.015,380.121 100.996,374.667 101.373 M80.480 101.653 C 80.719 101.892,80.800 104.926,80.800 113.662 C 80.800 127.365,80.626 126.749,83.733 124.020 C 91.966 116.789,106.014 121.842,109.625 133.333 C 116.270 154.480,99.061 171.463,80.474 162.102 C 78.503 161.109,78.426 161.119,77.260 162.513 C 76.293 163.670,76.247 163.691,74.804 163.624 C 72.874 163.535,73.027 164.177,73.075 156.361 C 73.255 126.596,73.074 109.560,72.564 108.444 C 71.626 106.393,69.936 105.166,67.400 104.695 C 66.445 104.518,66.400 104.462,66.400 103.460 C 66.400 102.164,66.057 102.248,72.933 101.863 C 75.867 101.698,78.507 101.528,78.800 101.485 C 79.924 101.319,80.170 101.343,80.480 101.653 M123.191 101.849 C 123.368 102.181,123.467 106.391,123.467 113.683 C 123.467 126.490,123.468 126.499,125.308 124.875 C 134.853 116.449,148.450 121.083,152.473 134.133 C 154.702 141.365,153.686 150.029,149.949 155.660 C 143.863 164.828,133.499 167.319,123.141 162.102 C 121.164 161.106,120.936 161.128,120.064 162.398 L 119.333 163.462 117.520 163.398 L 115.707 163.333 115.726 136.687 C 115.748 107.242,115.816 108.476,114.060 106.670 C 113.096 105.679,111.407 104.817,110.400 104.802 C 109.316 104.786,109.022 104.443,109.115 103.306 L 109.200 102.267 111.733 102.073 C 113.127 101.966,115.947 101.773,118.000 101.645 C 120.053 101.516,121.999 101.393,122.324 101.372 C 122.664 101.350,123.032 101.552,123.191 101.849 M337.680 101.667 C 338.095 101.975,338.134 104.113,338.198 129.878 C 338.263 156.343,338.291 157.795,338.753 158.499 C 339.319 159.362,340.699 160.233,342.400 160.800 C 343.585 161.195,343.600 161.215,343.600 162.400 L 343.600 163.600 334.419 163.600 L 325.238 163.600 325.023 162.800 C 324.672 161.491,324.928 161.187,326.655 160.865 C 328.718 160.482,329.745 159.704,330.267 158.131 C 331.004 155.915,330.737 110.439,329.978 108.800 C 329.130 106.968,326.044 104.800,324.285 104.800 C 323.903 104.800,323.773 104.134,323.969 103.176 L 324.155 102.267 329.240 101.950 C 334.073 101.650,336.320 101.484,336.949 101.380 C 337.104 101.354,337.433 101.483,337.680 101.667 M382.400 129.678 L 382.533 157.290 383.200 158.032 C 384.428 159.397,384.924 159.725,386.533 160.231 L 388.133 160.735 388.214 162.101 L 388.295 163.467 381.780 163.467 C 374.465 163.467,374.749 163.546,374.617 161.462 C 374.507 159.718,373.987 159.627,372.282 161.054 C 362.512 169.234,348.724 163.613,345.102 149.972 C 340.280 131.815,354.887 115.962,371.023 121.840 C 374.769 123.204,374.520 123.552,374.605 116.820 C 374.714 108.218,373.875 106.371,369.333 105.206 L 368.133 104.898 368.133 103.583 L 368.133 102.267 374.667 101.851 C 379.725 101.529,381.320 101.506,381.733 101.750 C 382.260 102.061,382.268 102.419,382.400 129.678 M37.752 108.952 C 37.522 109.183,37.333 109.491,37.333 109.636 C 37.333 109.782,37.045 110.531,36.693 111.301 C 36.340 112.071,35.932 113.114,35.786 113.617 C 35.639 114.121,34.956 115.853,34.267 117.467 C 33.578 119.080,32.678 121.300,32.266 122.400 C 31.855 123.500,30.611 126.650,29.501 129.400 C 27.439 134.509,27.337 135.031,28.352 135.303 C 29.413 135.588,47.735 135.484,48.284 135.191 C 49.062 134.774,48.938 134.326,46.140 127.467 C 45.870 126.807,45.089 124.767,44.403 122.933 C 43.717 121.100,42.745 118.627,42.244 117.438 C 41.743 116.249,41.333 115.195,41.333 115.096 C 41.333 114.772,39.124 109.209,38.859 108.867 C 38.518 108.426,38.259 108.446,37.752 108.952 M39.647 111.880 C 40.142 113.193,41.223 116.007,42.049 118.133 C 42.876 120.260,44.203 123.680,44.999 125.733 C 45.795 127.787,46.862 130.533,47.370 131.837 C 47.879 133.141,48.232 134.371,48.156 134.571 C 47.960 135.082,28.745 135.110,28.324 134.600 C 28.087 134.314,37.078 111.042,37.961 109.653 C 38.376 109.001,38.748 109.493,39.647 111.880 M175.333 120.304 C 156.090 122.742,151.743 154.549,169.467 163.224 C 174.774 165.822,182.497 165.746,187.455 163.047 C 188.850 162.288,189.060 161.889,189.059 160.000 C 189.058 157.961,188.884 157.884,186.344 158.792 C 179.320 161.304,172.775 159.038,169.805 153.067 C 168.137 149.713,166.829 142.575,167.771 141.967 C 167.970 141.838,174.193 141.673,181.600 141.600 L 195.067 141.467 195.019 138.000 C 194.880 127.802,190.098 121.746,181.116 120.392 C 178.277 119.965,178.041 119.961,175.333 120.304 M304.238 120.401 C 293.114 122.618,286.318 135.211,289.059 148.527 C 291.171 158.780,297.636 164.574,307.421 164.981 C 314.318 165.268,319.200 163.282,319.200 160.190 C 319.200 157.869,319.049 157.794,316.340 158.760 C 306.150 162.394,297.604 155.413,297.600 143.453 C 297.600 141.494,296.803 141.600,311.487 141.600 C 327.107 141.600,325.484 142.077,325.220 137.568 C 324.481 124.929,316.066 118.044,304.238 120.401 M180.711 120.800 C 183.165 121.059,183.499 121.152,186.049 122.292 C 191.356 124.664,194.193 129.769,194.590 137.661 C 194.720 140.241,194.679 140.895,194.375 141.088 C 194.169 141.218,188.034 141.327,180.743 141.329 C 165.214 141.334,166.770 140.913,167.211 144.987 C 168.559 157.446,176.886 163.338,187.110 159.066 C 188.365 158.541,188.584 158.778,188.482 160.555 C 188.261 164.413,177.177 166.122,170.667 163.302 C 168.793 162.490,168.375 162.257,167.067 161.290 C 163.293 158.503,161.415 155.718,159.991 150.800 C 155.872 136.565,163.229 122.047,175.200 120.791 C 177.782 120.520,178.057 120.520,180.711 120.800 M194.578 120.711 C 194.246 121.043,194.398 121.613,195.586 124.475 C 203.323 143.128,211.200 162.580,211.200 163.037 C 211.200 164.406,206.197 173.018,204.173 175.133 C 202.803 176.565,202.762 176.560,201.406 174.805 C 197.407 169.627,191.463 170.776,191.468 176.725 C 191.474 183.607,201.234 184.685,206.965 178.436 C 211.028 174.006,213.286 169.466,222.231 147.733 C 223.771 143.993,226.306 137.873,227.866 134.133 C 234.231 118.870,234.410 120.533,226.400 120.533 C 219.882 120.533,220.000 120.497,220.000 122.533 C 220.000 123.995,220.319 124.533,221.187 124.534 C 221.487 124.534,222.484 124.889,223.401 125.323 C 225.536 126.333,225.840 126.920,225.216 128.830 C 224.334 131.526,218.419 146.151,216.788 149.667 C 216.323 150.668,215.895 150.587,215.385 149.400 C 214.850 148.156,211.063 138.820,207.029 128.800 C 205.346 124.620,203.773 121.050,203.533 120.867 C 203.068 120.511,194.920 120.369,194.578 120.711 M313.600 121.222 C 320.927 123.405,324.800 129.639,324.800 139.248 L 324.800 141.044 311.190 141.122 C 295.494 141.212,296.964 140.882,297.176 144.270 C 297.924 156.205,305.519 162.464,315.600 159.453 C 318.428 158.609,318.519 158.620,318.619 159.841 C 318.756 161.515,318.516 161.981,317.176 162.650 C 310.467 166.001,301.279 164.952,295.844 160.215 C 285.617 151.301,286.947 130.443,298.192 123.387 C 302.565 120.643,308.742 119.775,313.600 121.222 M204.209 123.133 C 207.760 132.016,211.262 140.599,212.123 142.533 C 212.450 143.267,213.293 145.367,213.997 147.200 C 215.965 152.329,216.474 152.363,218.276 147.486 C 218.469 146.962,219.185 145.213,219.866 143.600 C 220.548 141.987,221.583 139.467,222.166 138.000 C 222.749 136.533,223.471 134.733,223.769 134.000 C 226.804 126.546,226.555 125.402,221.629 124.145 C 220.953 123.973,220.412 123.690,220.427 123.516 C 220.441 123.342,220.471 122.718,220.493 122.128 L 220.533 121.056 226.333 121.128 L 232.133 121.200 232.096 122.046 C 232.065 122.767,229.852 128.452,227.600 133.600 C 227.247 134.407,226.045 137.287,224.929 140.000 C 223.814 142.713,222.559 145.713,222.141 146.667 C 221.723 147.620,220.834 149.780,220.164 151.467 C 219.495 153.153,218.517 155.553,217.991 156.800 C 217.464 158.047,216.689 159.907,216.270 160.933 C 215.850 161.960,215.137 163.552,214.686 164.471 C 214.236 165.390,213.867 166.197,213.867 166.264 C 213.867 166.791,210.810 172.445,209.116 175.053 C 205.236 181.025,199.643 183.572,195.188 181.397 C 190.318 179.019,190.997 171.956,196.096 171.956 C 198.062 171.956,201.259 174.372,202.062 176.466 C 202.777 178.329,206.701 173.493,210.324 166.283 C 211.946 163.057,211.994 163.348,208.322 154.267 C 206.542 149.867,204.773 145.487,204.390 144.533 C 204.007 143.580,203.537 142.440,203.346 142.000 C 203.154 141.560,202.553 140.120,202.009 138.800 C 201.466 137.480,200.917 136.160,200.790 135.867 C 200.475 135.137,198.128 129.425,196.376 125.124 C 195.583 123.176,194.933 121.466,194.933 121.324 C 194.933 121.169,196.617 121.067,199.158 121.067 L 203.383 121.067 204.209 123.133 M305.186 123.951 C 304.299 124.214,303.327 124.602,303.027 124.815 C 299.857 127.055,298.040 130.264,297.322 134.888 C 296.823 138.103,296.072 137.867,306.777 137.867 C 317.595 137.867,316.689 138.186,316.438 134.458 C 315.881 126.192,311.484 122.085,305.186 123.951 M174.753 124.102 C 170.858 125.373,168.266 129.080,167.351 134.688 C 166.786 138.155,165.929 137.867,176.782 137.867 C 188.067 137.867,187.208 138.414,186.104 131.931 C 185.042 125.693,180.171 122.333,174.753 124.102 M362.078 124.089 C 352.294 126.862,349.260 148.573,357.439 157.282 C 361.824 161.951,369.328 161.528,373.869 156.356 L 374.667 155.448 374.667 143.183 L 374.667 130.918 373.892 129.392 C 371.665 125.008,366.701 122.779,362.078 124.089 M181.067 124.812 C 183.973 126.295,185.778 130.192,185.941 135.333 L 186.000 137.200 176.897 137.270 C 166.552 137.350,167.361 137.560,167.741 134.889 C 168.884 126.845,175.398 121.919,181.067 124.812 M310.314 124.399 C 313.430 125.324,315.367 128.688,315.988 134.247 C 316.363 137.607,317.179 137.333,306.785 137.333 C 296.572 137.333,297.349 137.570,297.865 134.613 C 299.230 126.800,304.325 122.621,310.314 124.399 M369.293 125.200 C 370.931 126.096,372.773 128.026,373.579 129.689 C 374.116 130.799,374.133 131.222,374.133 143.192 L 374.133 155.549 373.039 156.590 C 368.300 161.098,362.072 161.240,357.841 156.935 C 350.961 149.935,352.072 131.026,359.673 125.773 C 362.278 123.972,366.580 123.716,369.293 125.200 M87.600 125.340 C 85.927 125.678,85.091 126.069,83.278 127.363 C 80.573 129.293,80.774 128.052,80.859 142.298 L 80.933 154.800 81.569 156.091 C 85.446 163.966,96.038 163.605,99.922 155.467 C 103.387 148.207,103.268 137.318,99.653 130.965 C 97.044 126.380,92.638 124.324,87.600 125.340 M129.021 125.706 C 127.070 126.394,125.988 127.058,124.467 128.496 L 123.467 129.442 123.467 141.984 L 123.467 154.526 124.167 155.909 C 127.639 162.772,135.788 163.906,140.766 158.219 C 146.556 151.605,146.516 135.041,140.695 128.611 C 137.747 125.356,133.212 124.227,129.021 125.706 M94.458 126.509 C 104.378 131.202,104.518 155.358,94.655 160.560 C 90.628 162.683,84.839 160.690,82.187 156.267 L 81.467 155.067 81.390 142.423 L 81.313 129.779 82.190 128.875 C 85.260 125.707,90.590 124.680,94.458 126.509 M137.192 126.518 C 147.098 131.364,147.099 155.673,137.193 160.547 C 132.861 162.679,127.134 160.535,124.696 155.869 L 124.000 154.538 124.000 142.094 L 124.000 129.649 125.338 128.446 C 128.533 125.574,133.584 124.752,137.192 126.518 " stroke="none" fill="#4f6783" fill-rule="evenodd"></path>
    <path id="path3" d="M274.800 78.928 C 268.971 80.172,265.959 87.411,268.782 93.388 C 269.678 95.284,272.201 97.932,273.377 98.209 C 273.720 98.290,274.480 98.541,275.067 98.767 C 278.162 99.956,282.835 97.997,284.659 94.744 C 288.904 87.173,282.711 77.239,274.800 78.928 M261.600 112.914 C 258.642 113.735,256.942 115.553,256.392 118.482 C 256.035 120.385,257.073 120.725,259.634 119.546 C 267.451 115.948,272.095 126.836,269.722 143.200 C 267.542 158.237,275.571 168.779,289.300 168.905 C 293.720 168.946,293.931 168.188,290.527 164.491 C 283.991 157.394,282.721 152.158,283.583 135.860 C 283.986 128.232,282.425 123.205,278.140 118.338 C 274.460 114.157,266.512 111.551,261.600 112.914 " stroke="none" fill="#eb6e12" fill-rule="evenodd"></path>
    <path id="path4" d="M240.180 73.438 C 231.875 76.528,228.827 89.861,235.014 96.040 C 241.290 102.308,251.286 96.406,252.161 85.916 C 252.853 77.625,246.555 71.066,240.180 73.438 M246.341 74.412 C 255.647 79.063,251.964 97.323,241.569 98.073 C 230.507 98.870,228.687 79.811,239.309 74.402 C 241.562 73.255,244.032 73.259,246.341 74.412 M273.247 79.000 C 267.459 81.237,265.352 89.374,269.096 95.027 C 272.970 100.877,281.159 101.031,284.810 95.324 C 290.243 86.831,282.236 75.527,273.247 79.000 M279.483 79.339 C 285.267 81.380,287.847 89.058,284.659 94.744 C 282.835 97.997,278.162 99.956,275.067 98.767 C 274.480 98.541,273.720 98.290,273.377 98.209 C 272.201 97.932,269.678 95.284,268.782 93.388 C 264.951 85.279,271.595 76.556,279.483 79.339 M39.108 92.754 C 38.865 93.023,38.667 93.316,38.667 93.407 C 38.667 93.574,37.009 97.891,34.140 105.200 C 33.276 107.400,32.072 110.520,31.465 112.133 C 30.857 113.747,30.250 115.307,30.115 115.600 C 29.882 116.106,28.538 119.638,27.476 122.533 C 27.207 123.267,26.615 124.767,26.161 125.867 C 25.707 126.967,25.335 127.963,25.334 128.081 C 25.334 128.199,25.107 128.799,24.831 129.415 C 24.555 130.030,23.662 132.273,22.847 134.400 C 22.032 136.527,21.157 138.747,20.903 139.333 C 20.649 139.920,20.178 141.120,19.856 142.000 C 18.411 145.951,15.460 153.051,14.671 154.481 C 13.217 157.112,11.075 158.775,8.533 159.248 C 6.982 159.536,6.667 160.006,6.667 162.032 C 6.667 164.552,6.627 164.534,12.219 164.529 C 14.812 164.527,17.080 164.432,17.259 164.318 C 17.585 164.111,17.974 163.123,21.580 153.333 C 22.634 150.473,23.602 147.893,23.732 147.600 C 23.861 147.307,24.235 146.287,24.562 145.333 C 24.889 144.380,25.238 143.480,25.337 143.333 C 25.436 143.187,25.671 142.497,25.860 141.800 C 26.048 141.103,26.337 140.524,26.501 140.514 C 28.053 140.411,49.955 140.425,50.112 140.529 C 50.320 140.667,51.733 144.055,51.733 144.416 C 51.733 144.522,52.287 146.061,52.964 147.837 C 56.926 158.236,56.953 158.889,53.436 159.303 C 51.338 159.549,51.200 159.714,51.200 161.979 C 51.200 164.710,50.553 164.533,60.533 164.533 C 71.292 164.533,70.798 164.842,68.711 159.408 C 66.913 154.728,65.146 150.071,60.793 138.533 C 58.579 132.667,56.484 127.147,56.137 126.267 C 55.790 125.387,55.247 123.947,54.930 123.067 C 54.612 122.187,53.838 120.147,53.209 118.533 C 52.580 116.920,51.736 114.700,51.334 113.600 C 50.931 112.500,50.142 110.400,49.580 108.933 C 47.981 104.765,45.200 97.403,44.392 95.200 C 43.378 92.436,43.195 92.267,41.200 92.267 C 39.940 92.267,39.445 92.382,39.108 92.754 M44.450 96.667 C 45.240 98.720,46.235 101.360,46.662 102.533 C 47.089 103.707,48.295 106.887,49.341 109.600 C 50.388 112.313,51.404 115.013,51.600 115.600 C 51.796 116.187,52.515 118.107,53.198 119.867 C 53.881 121.627,54.775 123.967,55.186 125.067 C 57.592 131.512,60.456 139.090,60.800 139.920 C 60.934 140.243,62.389 144.083,64.035 148.454 C 65.680 152.824,67.436 157.480,67.937 158.800 C 70.119 164.546,70.906 164.000,60.437 164.000 C 50.779 164.000,51.467 164.151,51.467 162.029 C 51.467 160.411,51.909 159.959,53.735 159.711 C 54.857 159.559,55.474 159.313,55.963 158.825 C 57.086 157.701,57.029 157.438,53.738 148.533 C 53.060 146.700,52.221 144.396,51.874 143.413 C 51.526 142.430,51.081 141.290,50.884 140.880 L 50.526 140.133 38.292 140.133 C 27.694 140.133,26.028 140.187,25.835 140.533 C 25.621 140.917,20.700 154.095,20.259 155.467 C 19.561 157.636,17.544 162.846,17.197 163.375 C 16.795 163.989,16.712 164.000,12.314 164.000 C 7.217 164.000,7.198 163.993,7.204 162.013 C 7.209 160.266,7.376 160.046,9.027 159.610 C 11.978 158.832,14.049 156.955,15.659 153.600 C 16.402 152.051,22.516 136.837,23.750 133.467 C 24.018 132.733,24.706 130.933,25.279 129.467 C 27.311 124.265,31.084 114.507,34.250 106.267 C 40.051 91.168,39.193 92.766,41.441 92.864 L 43.016 92.933 44.450 96.667 M255.713 96.511 C 238.732 98.898,230.822 116.449,236.414 139.333 C 238.083 146.164,238.702 149.625,239.779 158.133 C 240.257 161.913,240.258 176.040,239.780 179.467 C 238.806 186.449,237.747 190.817,235.739 196.133 C 234.811 198.591,234.374 199.617,232.672 203.333 C 229.824 209.550,234.006 213.601,238.000 208.494 C 238.440 207.932,239.076 207.140,239.414 206.736 C 242.387 203.176,246.688 195.970,248.368 191.733 C 255.467 173.833,256.578 158.952,252.667 134.133 C 250.449 120.056,253.537 110.375,260.800 108.637 C 266.217 107.340,275.706 110.290,281.325 115.018 C 283.890 117.177,286.286 114.709,284.756 111.484 C 280.520 102.555,265.993 95.065,255.713 96.511 M262.267 97.078 C 270.724 98.291,278.965 103.448,283.508 110.368 C 286.285 114.597,284.436 116.804,280.520 113.933 C 278.529 112.474,278.176 112.262,275.467 110.906 C 260.622 103.476,251.623 109.020,251.616 125.600 C 251.615 130.287,251.824 132.607,252.687 137.467 C 257.587 165.074,252.003 191.309,237.635 208.187 C 233.590 212.938,230.465 209.330,233.287 203.167 C 238.798 191.130,240.786 182.174,240.795 169.333 C 240.800 162.558,240.426 158.431,238.936 148.800 C 238.659 147.012,237.230 140.339,236.537 137.600 C 230.504 113.748,242.856 94.294,262.267 97.078 M121.832 100.391 C 121.769 100.454,118.928 100.688,115.520 100.913 C 108.152 101.398,108.267 101.357,108.267 103.465 L 108.267 105.044 110.067 105.585 C 112.558 106.334,113.423 106.936,114.164 108.441 L 114.800 109.733 114.800 136.800 C 114.800 151.687,114.897 164.017,115.016 164.200 C 115.158 164.420,115.944 164.533,117.330 164.533 C 119.533 164.533,119.811 164.410,120.716 163.029 C 121.255 162.207,121.254 162.207,124.239 163.570 C 141.650 171.525,158.383 156.117,154.036 136.133 C 150.885 121.650,136.273 114.958,125.840 123.221 C 125.299 123.650,124.788 124.000,124.703 124.000 C 124.619 124.000,124.516 118.963,124.475 112.807 C 124.403 102.013,124.381 101.596,123.867 101.106 C 123.348 100.612,122.062 100.160,121.832 100.391 M71.867 100.972 C 65.583 101.424,65.600 101.418,65.600 103.295 C 65.600 104.967,65.746 105.132,67.733 105.709 C 69.882 106.333,70.780 106.985,71.497 108.441 L 72.133 109.733 72.135 136.800 C 72.135 151.687,72.232 164.017,72.350 164.200 C 72.574 164.547,76.103 164.682,76.906 164.374 C 77.135 164.286,77.575 163.806,77.883 163.307 C 78.568 162.199,78.453 162.199,80.843 163.308 C 98.948 171.707,115.763 156.585,111.329 135.891 C 108.654 123.408,97.280 116.659,86.533 121.179 C 85.270 121.710,82.667 123.460,82.667 123.778 C 82.667 123.900,82.487 124.000,82.267 124.000 C 81.918 124.000,81.867 122.597,81.867 112.969 C 81.867 98.702,83.085 100.164,71.867 100.972 M329.754 100.978 C 323.314 101.427,323.095 101.506,322.985 103.424 C 322.883 105.203,323.055 105.401,325.336 106.134 C 327.240 106.746,328.246 107.508,329.025 108.928 C 329.738 110.228,329.699 158.088,328.984 158.878 C 328.491 159.422,326.697 160.000,325.501 160.000 C 324.154 160.000,323.247 163.310,324.344 164.221 C 325.067 164.820,343.977 164.753,344.420 164.149 C 345.520 162.651,344.732 160.457,342.884 159.874 C 338.765 158.574,339.200 162.146,339.200 129.649 C 339.200 102.019,339.198 101.937,338.647 101.236 C 337.995 100.407,337.947 100.406,329.754 100.978 M378.800 100.670 C 378.653 100.723,376.302 100.899,373.575 101.061 C 366.744 101.469,367.067 101.342,367.067 103.619 L 367.067 105.466 369.156 106.135 C 373.134 107.410,373.596 108.460,373.599 116.231 L 373.600 121.662 373.000 121.467 C 360.675 117.462,349.947 121.599,345.570 132.047 C 345.243 132.828,344.884 133.589,344.772 133.740 C 343.436 135.530,342.871 144.718,343.828 149.093 C 346.995 163.566,362.615 170.689,372.381 162.114 C 373.511 161.122,373.501 161.119,373.681 162.464 C 373.956 164.509,374.050 164.533,381.647 164.533 C 389.609 164.533,389.333 164.620,389.333 162.130 C 389.333 159.985,389.039 159.652,386.869 159.346 C 385.094 159.096,383.903 157.931,383.502 156.054 C 383.289 155.055,383.200 146.863,383.200 128.120 C 383.200 97.616,383.473 100.515,380.600 100.554 C 379.757 100.566,378.947 100.618,378.800 100.670 M123.767 101.821 C 123.922 102.230,124.015 106.858,123.998 113.319 C 123.983 119.267,123.977 124.283,123.985 124.467 C 124.012 125.064,124.637 124.803,126.400 123.457 C 137.225 115.193,151.569 122.819,153.847 138.051 C 156.807 157.848,140.698 170.714,123.105 162.604 L 121.255 161.752 120.276 162.889 L 119.297 164.025 117.315 163.946 L 115.333 163.867 115.333 136.800 C 115.333 109.875,115.330 109.727,114.774 108.525 C 114.024 106.904,112.869 105.992,110.731 105.332 C 108.768 104.725,108.543 104.517,108.537 103.299 C 108.531 101.975,108.926 101.849,114.322 101.453 C 123.351 100.790,123.375 100.791,123.767 101.821 M80.800 101.328 C 81.142 101.544,81.219 103.250,81.333 113.101 C 81.482 125.906,81.381 125.373,83.337 123.758 C 96.547 112.841,114.464 127.670,111.222 146.836 C 108.630 162.163,94.965 169.274,80.703 162.718 L 78.606 161.754 77.636 162.890 L 76.667 164.027 74.667 163.947 L 72.667 163.867 72.667 136.800 L 72.667 109.733 72.046 108.473 C 71.209 106.774,70.186 105.979,67.969 105.306 L 66.108 104.740 66.187 103.371 L 66.267 102.001 67.733 101.805 C 72.181 101.209,80.152 100.918,80.800 101.328 M338.248 101.486 C 338.623 101.861,338.667 104.788,338.667 129.713 L 338.667 157.521 339.275 158.427 C 339.753 159.140,340.296 159.478,341.827 160.015 C 343.995 160.774,344.257 161.036,344.263 162.448 C 344.271 164.387,344.506 164.347,334.170 164.149 C 323.704 163.948,324.533 164.097,324.533 162.417 C 324.533 160.901,324.778 160.646,326.474 160.394 C 328.199 160.137,329.387 159.289,329.807 158.015 C 330.491 155.940,330.138 109.991,329.428 108.667 C 328.581 107.085,327.035 105.990,324.935 105.483 C 323.710 105.188,323.467 104.847,323.467 103.426 C 323.467 101.818,323.095 101.949,328.933 101.500 C 335.769 100.975,337.734 100.972,338.248 101.486 M382.386 101.449 C 382.627 101.740,382.697 107.819,382.676 126.700 C 382.646 154.091,382.714 156.395,383.579 157.679 C 384.346 158.817,385.646 159.650,387.006 159.874 C 388.607 160.138,388.800 160.381,388.800 162.137 C 388.800 164.108,389.218 164.000,381.578 164.000 C 374.285 164.000,374.133 163.957,374.133 161.867 C 374.133 160.487,373.729 160.484,371.918 161.851 C 368.016 164.798,363.377 165.888,358.800 164.936 C 343.796 161.813,338.510 139.070,349.833 126.353 C 354.465 121.152,363.401 118.902,370.400 121.174 C 371.647 121.579,372.967 121.931,373.333 121.955 L 374.000 122.000 374.000 115.867 C 374.000 108.131,373.447 106.824,369.758 105.838 C 367.413 105.211,367.431 105.231,367.520 103.533 L 367.600 102.000 369.467 101.802 C 376.196 101.089,381.956 100.931,382.386 101.449 M37.961 109.653 C 37.078 111.042,28.087 134.314,28.324 134.600 C 28.745 135.110,47.960 135.082,48.156 134.571 C 48.232 134.371,47.879 133.141,47.370 131.837 C 46.862 130.533,45.795 127.787,44.999 125.733 C 44.203 123.680,42.876 120.260,42.049 118.133 C 41.223 116.007,40.142 113.193,39.647 111.880 C 38.748 109.493,38.376 109.001,37.961 109.653 M39.060 111.667 C 39.317 112.363,40.002 114.133,40.583 115.600 C 41.164 117.067,42.125 119.587,42.718 121.200 C 43.310 122.813,43.888 124.253,44.002 124.400 C 44.116 124.547,44.394 125.207,44.620 125.867 C 44.846 126.527,45.590 128.507,46.273 130.267 C 46.956 132.027,47.578 133.677,47.655 133.933 C 47.787 134.372,47.219 134.400,38.298 134.400 C 30.821 134.400,28.800 134.328,28.800 134.063 C 28.800 133.877,29.027 133.127,29.305 132.396 C 30.320 129.723,32.601 124.079,33.488 122.044 C 33.990 120.895,34.400 119.836,34.400 119.690 C 34.400 119.545,34.833 118.385,35.361 117.113 C 35.890 115.841,36.568 114.200,36.867 113.467 C 38.364 109.796,38.370 109.792,39.060 111.667 M261.535 112.271 C 260.986 112.410,260.086 112.813,259.535 113.166 C 254.605 116.326,254.539 123.002,259.467 120.083 C 266.072 116.170,271.494 126.908,269.592 140.133 C 266.981 158.286,273.521 168.314,288.797 169.579 C 294.551 170.055,294.925 168.740,290.471 163.690 C 285.015 157.502,282.832 150.117,283.783 141.067 C 285.012 129.369,283.266 122.582,277.667 117.300 C 273.443 113.316,266.256 111.075,261.535 112.271 M268.062 112.928 C 278.374 114.901,284.233 123.558,283.583 135.860 C 282.721 152.158,283.991 157.394,290.527 164.491 C 293.931 168.188,293.720 168.946,289.300 168.905 C 275.571 168.779,267.542 158.237,269.722 143.200 C 272.095 126.836,267.451 115.948,259.634 119.546 C 257.073 120.725,256.035 120.385,256.392 118.482 C 257.288 113.705,261.543 111.681,268.062 112.928 M176.133 119.663 C 153.478 122.188,151.101 160.171,173.291 165.078 C 181.438 166.879,189.600 164.370,189.600 160.063 C 189.600 157.157,189.439 157.071,186.249 158.273 C 176.408 161.981,167.417 154.773,168.052 143.684 L 168.133 142.267 181.659 142.198 L 195.184 142.128 195.497 141.543 C 196.454 139.756,195.246 132.080,193.409 128.267 C 190.643 122.528,183.289 118.865,176.133 119.663 M305.467 119.626 C 305.173 119.700,304.153 119.944,303.200 120.167 C 290.145 123.230,283.729 141.561,290.892 155.333 C 295.564 164.318,307.543 168.300,316.659 163.898 C 319.532 162.511,319.478 162.582,319.543 160.077 C 319.611 157.453,319.369 157.041,318.063 157.566 C 314.326 159.067,314.362 159.060,310.920 159.063 C 303.261 159.071,298.534 153.645,298.322 144.603 L 298.267 142.267 311.662 142.198 L 325.058 142.128 325.501 141.451 C 326.981 139.193,324.906 129.672,322.100 125.838 C 318.967 121.559,310.436 118.373,305.467 119.626 M181.116 120.392 C 190.098 121.746,194.880 127.802,195.019 138.000 L 195.067 141.467 181.600 141.600 C 174.193 141.673,167.970 141.838,167.771 141.967 C 166.829 142.575,168.137 149.713,169.805 153.067 C 172.775 159.038,179.320 161.304,186.344 158.792 C 188.884 157.884,189.058 157.961,189.059 160.000 C 189.060 161.889,188.850 162.288,187.455 163.047 C 179.852 167.185,168.714 165.093,163.387 158.527 C 152.582 145.209,159.749 122.278,175.333 120.304 C 178.041 119.961,178.277 119.965,181.116 120.392 M311.867 120.391 C 320.022 121.713,324.640 127.654,325.220 137.568 C 325.484 142.077,327.107 141.600,311.487 141.600 C 296.803 141.600,297.600 141.494,297.600 143.453 C 297.604 155.413,306.150 162.394,316.340 158.760 C 318.554 157.970,318.693 157.952,318.940 158.412 C 322.247 164.592,306.598 167.540,297.964 162.364 C 286.539 155.516,285.110 134.637,295.408 125.013 C 299.859 120.853,305.296 119.326,311.867 120.391 M193.883 120.646 C 193.637 120.944,193.684 121.281,194.104 122.201 C 194.398 122.848,194.891 124.027,195.199 124.821 C 195.506 125.616,195.977 126.747,196.244 127.333 C 196.512 127.920,196.822 128.700,196.933 129.067 C 197.044 129.433,197.960 131.676,198.968 134.050 C 199.975 136.424,200.800 138.435,200.800 138.519 C 200.800 138.604,201.032 139.181,201.315 139.803 C 202.143 141.620,204.000 146.092,204.000 146.268 C 204.000 146.357,204.243 146.962,204.539 147.613 C 204.836 148.264,205.421 149.667,205.840 150.732 C 206.258 151.796,207.525 154.947,208.655 157.733 C 211.046 163.629,211.068 162.782,208.389 167.867 C 206.649 171.169,203.565 175.600,203.006 175.600 C 202.831 175.600,202.113 174.894,201.411 174.031 C 197.417 169.126,190.933 170.750,190.933 176.656 C 190.933 182.605,199.178 185.138,204.979 180.971 C 209.383 177.807,213.198 171.055,219.991 154.400 C 221.038 151.833,222.123 149.193,222.402 148.533 C 222.681 147.873,223.198 146.613,223.552 145.733 C 223.905 144.853,225.845 140.173,227.863 135.333 C 233.017 122.972,233.105 122.735,233.013 121.483 L 232.933 120.400 226.567 120.328 C 219.118 120.245,219.411 120.149,219.522 122.634 L 219.600 124.385 221.778 125.192 C 224.078 126.045,225.067 126.727,225.067 127.460 C 225.067 128.004,222.301 135.481,221.069 138.267 C 220.940 138.560,219.858 141.140,218.666 144.000 C 217.474 146.860,216.405 149.296,216.290 149.412 C 216.176 149.529,215.325 147.789,214.399 145.546 C 213.474 143.302,212.367 140.627,211.939 139.600 C 209.779 134.408,208.791 131.974,207.611 128.933 C 205.727 124.078,204.483 121.186,204.092 120.754 C 203.500 120.100,194.416 120.004,193.883 120.646 M203.533 120.867 C 203.773 121.050,205.346 124.620,207.029 128.800 C 211.063 138.820,214.850 148.156,215.385 149.400 C 215.895 150.587,216.323 150.668,216.788 149.667 C 218.419 146.151,224.334 131.526,225.216 128.830 C 225.840 126.920,225.536 126.333,223.401 125.323 C 222.484 124.889,221.487 124.534,221.187 124.534 C 220.319 124.533,220.000 123.995,220.000 122.533 C 220.000 120.497,219.882 120.533,226.400 120.533 C 234.410 120.533,234.231 118.870,227.866 134.133 C 226.306 137.873,223.771 143.993,222.231 147.733 C 213.286 169.466,211.028 174.006,206.965 178.436 C 201.234 184.685,191.474 183.607,191.468 176.725 C 191.463 170.776,197.407 169.627,201.406 174.805 C 202.762 176.560,202.803 176.565,204.173 175.133 C 206.197 173.018,211.200 164.406,211.200 163.037 C 211.200 162.580,203.323 143.128,195.586 124.475 C 194.398 121.613,194.246 121.043,194.578 120.711 C 194.920 120.369,203.068 120.511,203.533 120.867 M175.979 124.264 C 171.798 124.990,168.553 129.175,167.741 134.889 C 167.361 137.560,166.552 137.350,176.897 137.270 L 186.000 137.200 185.941 135.333 C 185.691 127.443,181.905 123.236,175.979 124.264 M305.317 124.364 C 301.539 125.383,298.826 129.114,297.865 134.613 C 297.349 137.570,296.572 137.333,306.785 137.333 C 317.179 137.333,316.363 137.607,315.988 134.247 C 315.098 126.272,311.297 122.752,305.317 124.364 M361.786 124.637 C 352.606 128.046,350.046 149.004,357.841 156.935 C 362.072 161.240,368.300 161.098,373.039 156.590 L 374.133 155.549 374.133 143.192 C 374.133 129.188,374.233 129.888,371.872 127.262 C 369.510 124.635,364.971 123.454,361.786 124.637 M180.493 124.992 C 182.294 125.841,183.857 127.776,184.486 129.935 C 185.035 131.818,185.764 136.458,185.545 136.677 C 185.485 136.737,181.543 136.796,176.785 136.809 L 168.133 136.832 168.052 136.184 C 167.783 134.033,169.989 128.728,171.914 126.896 C 174.234 124.688,178.051 123.841,180.493 124.992 M311.401 125.411 C 313.803 126.957,315.733 131.789,315.733 136.251 C 315.733 136.981,298.511 137.134,298.232 136.406 C 297.411 134.265,300.487 127.831,303.303 125.801 C 305.402 124.287,309.360 124.096,311.401 125.411 M368.628 125.491 C 370.771 126.611,371.547 127.317,372.611 129.117 L 373.600 130.788 373.600 143.101 L 373.600 155.413 372.143 156.745 C 367.954 160.573,362.054 160.497,358.121 156.564 C 351.043 149.486,352.834 129.815,360.933 125.670 C 363.643 124.283,366.204 124.223,368.628 125.491 M86.942 126.010 C 85.264 126.480,83.451 127.573,82.190 128.875 L 81.313 129.779 81.390 142.423 L 81.467 155.067 82.187 156.267 C 85.656 162.053,92.785 163.116,97.212 158.509 C 102.613 152.888,103.596 138.482,99.101 130.838 C 96.637 126.648,91.683 124.680,86.942 126.010 M130.123 125.828 C 128.602 126.155,126.775 127.155,125.338 128.446 L 124.000 129.649 124.000 142.094 L 124.000 154.538 124.696 155.869 C 128.339 162.840,137.245 163.221,141.433 156.586 C 145.167 150.672,145.630 138.953,142.403 132.057 C 140.171 127.286,135.164 124.746,130.123 125.828 M94.311 126.950 C 103.891 131.556,103.887 155.438,94.305 160.126 C 90.185 162.142,85.075 160.288,82.562 155.867 L 81.804 154.533 81.842 142.133 L 81.879 129.733 82.739 128.975 C 85.941 126.154,90.863 125.293,94.311 126.950 M136.814 126.845 C 146.395 131.149,146.578 155.103,137.067 160.043 C 132.962 162.175,127.461 160.194,125.223 155.779 L 124.533 154.418 124.533 142.030 L 124.533 129.642 125.647 128.689 C 128.567 126.189,133.530 125.370,136.814 126.845 " stroke="none" fill="#adbdcd" fill-rule="evenodd"></path>
  </g>
</svg>
